<?xml version="1.0" encoding="UTF-8" standalone="no"?>
<svg width="1040px" height="650px" viewBox="0 0 1040 650" version="1.1" xmlns="http://www.w3.org/2000/svg" xmlns:xlink="http://www.w3.org/1999/xlink">
    <!-- Generator: Sketch 46.2 (44496) - http://www.bohemiancoding.com/sketch -->
    <title>Group 6</title>
    <desc>Created with Sketch.</desc>
    <defs>
        <rect id="path-1" x="0" y="0" width="1142" height="904"></rect>
        <polygon id="path-3" points="191.544491 724 0.642027029 724 0.642027029 0.727765292 191.544491 0.727765292 191.544491 724"></polygon>
    </defs>
    <g id="Page-1" stroke="none" stroke-width="1" fill="none" fill-rule="evenodd">
        <g id="Artboard" transform="translate(-2678.000000, -3896.000000)">
            <g id="Group-6" transform="translate(3203.000000, 4094.000000) scale(-1, -1) translate(-3203.000000, -4094.000000) translate(2632.000000, 3642.000000)">
                <mask id="mask-2" fill="white">
                    <use xlink:href="#path-1"></use>
                </mask>
                <g id="Mask"></g>
                <g opacity="0.289004198" mask="url(#mask-2)">
                    <g transform="translate(576.000000, 177.000000) scale(-1, -1) translate(-576.000000, -177.000000) translate(56.000000, -296.000000)">
                        <path d="M1039.77369,473.491213 C1039.77369,593.888374 1039.94088,714.301966 1039.65666,834.699126 C1039.58978,864.6875 1035.64409,893.295588 1011.65229,916.136048 C982.761805,943.62676 950.025947,953.38736 912.006875,940.159611 C873.185291,926.636087 850.915545,898.570255 847.153763,858.31189 C845.063885,836.046549 846.451564,813.452568 846.451564,791.006476 C846.451564,560.399986 846.35125,329.793497 846.551878,99.2034394 C846.585316,54.7056218 873.619986,16.9120543 912.44157,4.96600059 C955.844169,-8.36033993 999.347081,5.13032045 1022.8206,45.4872777 C1033.97219,64.6634052 1038.77055,89.7714796 1039.07149,112.299732 C1040.59293,232.680461 1039.79041,353.094053 1039.77369,473.491213" id="Fill-15" fill="#D2D2D2"></path>
                        <g id="Group-19" stroke-width="1" fill="none" transform="translate(284.000000, 82.000000)">
                            <mask id="mask-4" fill="white">
                                <use xlink:href="#path-3"></use>
                            </mask>
                            <g id="Clip-18"></g>
                            <path d="M0.72720715,360.618703 C0.693931839,274.017621 0.544192938,187.383691 0.743844806,100.782608 C0.876946051,41.4773721 38.7276127,1.10842435 93.9646296,0.730683995 C149.135096,0.336520144 190.496308,39.9007167 190.878974,98.0398847 C191.943784,261.059484 191.361466,424.11193 191.428017,587.147953 C191.428017,600.401713 191.794045,613.655472 191.228365,626.892808 C188.782629,682.732687 146.007217,724.464785 92.0180239,724.004927 C41.7889414,723.561493 0.926859018,678.807472 0.810395429,623.525992 C0.627381216,535.890229 0.760482462,448.254466 0.72720715,360.618703" id="Fill-17" fill="#D2D2D2" mask="url(#mask-4)"></path>
                        </g>
                        <path d="M755.898684,650.264929 C755.915216,716.099317 756.146666,781.933706 755.849087,847.768094 C755.617637,901.920317 717.510981,942.998456 665.533832,945.881714 C617.292955,948.532986 568.043615,906.261774 567.332732,854.611689 C565.481129,717.822644 565.514193,580.967317 567.712972,444.178272 C568.556113,391.749376 617.17723,351.052357 666.42657,354.167601 C718.618636,357.46512 755.601104,397.946724 755.816023,452.745194 C756.080537,518.596153 755.882151,584.41397 755.898684,650.264929" id="Fill-20" fill="#D2D2D2"></path>
                        <path d="M193.507219,606.971399 C193.507219,638.928256 193.640953,670.868486 193.473786,702.825342 C193.189602,760.636992 152.969227,804.797976 99.7265448,805.978484 C47.5537313,807.109112 3.5386662,763.546696 1.01444484,706.649524 C-0.406474461,674.759175 0.429360424,642.769064 0.379210331,610.812208 C0.329060238,574.765139 -0.623791532,538.651563 0.696827587,502.621122 C2.8198482,444.87598 44.9459264,403.375296 98.9742934,404.007117 C154.222979,404.638938 192.604517,445.19189 193.691103,504.948885 C194.30962,538.93422 193.80812,572.969437 193.80812,606.971399 L193.507219,606.971399 Z" id="Fill-22" fill="#D2D2D2"></path>
                    </g>
                </g>
            </g>
        </g>
    </g>
</svg>