<?xml version="1.0" encoding="UTF-8" standalone="no"?>
<svg width="292px" height="62px" viewBox="0 0 292 62" version="1.1" xmlns="http://www.w3.org/2000/svg" xmlns:xlink="http://www.w3.org/1999/xlink">
    <!-- Generator: Sketch 46.2 (44496) - http://www.bohemiancoding.com/sketch -->
    <title>Microsoft_logo</title>
    <desc>Created with Sketch.</desc>
    <defs></defs>
    <g id="Page-1" stroke="none" stroke-width="1" fill="none" fill-rule="evenodd">
        <g id="Artboard" transform="translate(-2040.000000, -2810.000000)" fill-rule="nonzero">
            <g id="Microsoft_logo" transform="translate(2040.000000, 2810.000000)">
                <path d="M292,28.1223726 L292,23.0797701 L285.6527,23.0797701 L285.6527,15.2402292 L285.439055,15.3050646 L279.47728,17.1045081 L279.359901,17.1398729 L279.359901,23.0797701 L269.950201,23.0797701 L269.950201,19.7710824 C269.950201,18.2302872 270.299528,17.0511143 270.98764,16.2647678 C271.671183,15.4877827 272.648878,15.0928759 273.895422,15.0928759 C274.791935,15.0928759 275.720078,15.3012508 276.653843,15.7121064 L276.8879,15.8150803 L276.8879,10.5044683 L276.7779,10.4645962 C275.90669,10.1556744 274.721296,10 273.252645,10 C271.40128,10 269.718956,10.3973338 268.252062,11.185067 C266.784114,11.9738405 265.629295,13.0999662 264.820641,14.5318933 C264.014447,15.9620869 263.605375,17.6138304 263.605375,19.4417044 L263.605375,23.0797701 L259.185716,23.0797701 L259.185716,28.1223726 L263.605375,28.1223726 L263.605375,49.3658608 L269.950201,49.3658608 L269.950201,28.1223726 L279.359901,28.1223726 L279.359901,41.6223596 C279.359901,47.1822587 282.018163,50 287.260534,50 C288.122255,50 289.028622,49.9001465 289.954642,49.7049467 C290.896856,49.504893 291.538579,49.3048393 291.916358,49.0912637 L292,49.0427238 L292,43.953315 L291.742046,44.1218178 C291.397639,44.3485685 290.968887,44.5333668 290.465996,44.6706654 C289.960968,44.8107377 289.539245,44.8811206 289.212775,44.8811206 C287.984492,44.8811206 287.076044,44.5545164 286.511975,43.9103225 C285.941946,43.2602346 285.652728,42.123014 285.652728,40.5326388 L285.652728,28.1223726 L292,28.1223726 L292,28.1223726 Z M245.016729,44.881606 C242.713769,44.881606 240.89825,44.1281973 239.618672,42.6442632 C238.331361,41.1527013 237.679096,39.0263069 237.679096,36.3247146 C237.679096,33.5374841 238.331361,31.3559622 239.619374,29.8380501 C240.899656,28.3301927 242.697954,27.5649958 244.965068,27.5649958 C247.165057,27.5649958 248.916263,28.295868 250.170538,29.7385433 C251.431491,31.1884995 252.071104,33.3526857 252.071104,36.1725073 C252.071104,39.0270003 251.469446,41.2196171 250.282998,42.6862155 C249.104984,44.1420659 247.333395,44.881606 245.016729,44.881606 L245.016729,44.881606 Z M245.299283,22.4464631 C240.90563,22.4464631 237.415871,23.716475 234.928055,26.2214806 C232.441645,28.726833 231.180693,32.1936222 231.180693,36.5268486 C231.180693,40.6423389 232.411422,43.9527603 234.83879,46.3645 C237.266159,48.7772799 240.569657,49.9994453 244.656507,49.9994453 C248.91556,49.9994453 252.335735,48.711751 254.822848,46.172074 C257.30961,43.6348239 258.569508,40.2009725 258.569508,35.9689865 C258.569508,31.7890074 257.387277,28.4539694 255.054445,26.0581785 C252.720558,23.6613475 249.437794,22.4464631 245.299283,22.4464631 L245.299283,22.4464631 Z M220.950916,22.4463244 C217.962304,22.4463244 215.490303,23.2004265 213.601686,24.687481 C211.701822,26.1832035 210.738185,28.1452557 210.738185,30.5192036 C210.738185,31.7531573 210.946235,32.8494656 211.355658,33.7790048 C211.767541,34.712011 212.405046,35.5330288 213.251655,36.2222954 C214.09229,36.9060146 215.389089,37.6223249 217.108314,38.3507701 C218.553068,38.9374095 219.630922,39.4339034 220.315519,39.8249963 C220.984654,40.2081148 221.459795,40.5936603 221.727941,40.9688044 C221.988355,41.3359741 222.120846,41.8383621 222.120846,42.4589794 C222.120846,44.2247918 220.780469,45.083948 218.022048,45.083948 C216.999018,45.083948 215.831899,44.8734929 214.553374,44.4577833 C213.274147,44.0427671 212.078913,43.446073 211.00141,42.6808761 L210.738185,42.4946909 L210.738185,48.5209198 L210.83483,48.5652992 C211.732749,48.9740745 212.864373,49.3187078 214.198424,49.5901845 C215.530015,49.8616613 216.739658,50 217.790803,50 C221.033855,50 223.645376,49.2420841 225.550862,47.7463617 C227.468648,46.2402378 228.44072,44.2320727 228.44072,41.775607 C228.44072,40.0039005 227.917432,38.4842549 226.885967,37.258969 C225.861883,36.0433912 224.084319,34.9276669 221.604587,33.9412667 C219.629165,33.1590809 218.363644,32.5096863 217.841761,32.0114589 C217.338505,31.5298737 217.083011,30.8489282 217.083011,29.9866515 C217.083011,29.2221481 217.398249,28.6098519 218.045946,28.1137047 C218.698562,27.6151306 219.606673,27.3616829 220.746028,27.3616829 C221.803148,27.3616829 222.884868,27.5263719 223.960262,27.8491623 C225.035305,28.1719526 225.979262,28.6043044 226.767533,29.1333894 L227.026542,29.308133 L227.026542,23.5915194 L226.927085,23.5492203 C226.199964,23.2416854 225.241247,22.9785298 224.076939,22.7649542 C222.9172,22.5534589 221.865352,22.4463244 220.950916,22.4463244 L220.950916,22.4463244 Z M194.197497,44.881606 C191.89524,44.881606 190.079018,44.1281973 188.799791,42.6442632 C187.512129,41.1527013 186.860918,39.0270003 186.860918,36.3247146 C186.860918,33.5374841 187.512832,31.3559622 188.801197,29.8380501 C190.080424,28.3301927 191.878371,27.5649958 194.146539,27.5649958 C196.345825,27.5649958 198.097031,28.295868 199.351658,29.7385433 C200.61261,31.1884995 201.252224,33.3526857 201.252224,36.1725073 C201.252224,39.0270003 200.650214,41.2196171 199.463766,42.6862155 C198.285752,44.1420659 196.514866,44.881606 194.197497,44.881606 L194.197497,44.881606 Z M194.480754,22.4464631 C190.086047,22.4464631 186.596287,23.716475 184.109526,26.2214806 C181.623116,28.726833 180.361461,32.1936222 180.361461,36.5268486 C180.361461,40.6440725 181.592892,43.9527603 184.020261,46.3645 C186.44763,48.7772799 189.750777,49.9994453 193.837978,49.9994453 C198.095977,49.9994453 201.517206,48.711751 204.004319,46.172074 C206.490378,43.6348239 207.750979,40.2009725 207.750979,35.9689865 C207.750979,31.7890074 206.568396,28.4539694 204.235213,26.0581785 C201.900623,23.6613475 198.618562,22.4464631 194.480754,22.4464631 L194.480754,22.4464631 Z M170.730216,27.6317728 L170.730216,23.0797701 L164.462706,23.0797701 L164.462706,49.3651674 L170.730216,49.3651674 L170.730216,35.9192677 C170.730216,33.6326916 171.255613,31.7545441 172.292349,30.3357921 C173.316082,28.9340291 174.680357,28.2236129 176.345812,28.2236129 C176.910218,28.2236129 177.543857,28.315492 178.230212,28.49717 C178.909538,28.6778077 179.401548,28.8737009 179.691834,29.0799955 L179.95506,29.268261 L179.95506,23.0346974 L179.853495,22.9917049 C179.26976,22.7469251 178.444237,22.623495 177.399417,22.623495 C175.824632,22.623495 174.415023,23.1227626 173.20784,24.1056956 C172.14826,24.9697059 171.38213,26.1544262 170.796637,27.6317728 L170.730216,27.6317728 L170.730216,27.6317728 Z M153.239071,22.4463244 C150.363973,22.4463244 147.799192,23.0548068 145.617478,24.2537423 C143.431546,25.4554516 141.741138,27.1713372 140.590888,29.3532058 C139.44591,31.5298737 138.864634,34.0723245 138.864634,36.9074015 C138.864634,39.3909109 139.428338,41.670206 140.54239,43.6787179 C141.657145,45.6906968 143.235093,47.2647765 145.232304,48.3565776 C147.226703,49.4469918 149.531772,50 152.0839,50 C155.062321,50 157.605312,49.4123205 159.644344,48.2539504 L159.72658,48.207144 L159.72658,42.5425374 L159.463354,42.7321898 C158.53978,43.3957996 157.507613,43.9255779 156.397075,44.3073096 C155.289348,44.6886945 154.279321,44.8814673 153.394054,44.8814673 C150.934705,44.8814673 148.960688,44.1221645 147.527532,42.6257487 C146.091213,41.1269058 145.363038,39.0227011 145.363038,36.3745027 C145.363038,33.709662 146.122491,31.55137 147.619257,29.9585677 C149.111103,28.3706195 151.088985,27.5652038 153.497376,27.5652038 C155.557494,27.5652038 157.564897,28.2534303 159.464057,29.6125476 L159.72658,29.800813 L159.72658,23.8321386 L159.641884,23.7849856 C158.927063,23.3904255 157.952531,23.0645147 156.742185,22.8173079 C155.537462,22.5707946 154.359097,22.4463244 153.239071,22.4463244 L153.239071,22.4463244 Z M134.548086,23.0798395 L128.280576,23.0798395 L128.280576,49.3652368 L134.548086,49.3652368 L134.548086,23.0798395 Z M131.478293,11.8820307 C130.446828,11.8820307 129.547152,12.2283976 128.808082,12.9148905 C128.065849,13.6034637 127.689109,14.4702476 127.689109,15.4930527 C127.689109,16.499909 128.06128,17.3507441 128.796133,18.0209415 C129.526417,18.6890586 130.428905,19.0277978 131.478293,19.0277978 C132.527329,19.0277978 133.433331,18.6890586 134.172401,18.0219816 C134.916391,17.3507441 135.293482,16.499909 135.293482,15.4930527 C135.293482,14.5059591 134.926583,13.647843 134.202976,12.9426276 C133.480424,12.238799 132.563527,11.8820307 131.478293,11.8820307 L131.478293,11.8820307 Z M115.840829,21.1405317 L115.840829,49.3650981 L122.236965,49.3650981 L122.236965,12.686961 L113.384643,12.686961 L102.132364,39.9303279 L91.2128954,12.686961 L82,12.686961 L82,49.3650981 L88.0106103,49.3650981 L88.0106103,21.137758 L88.2172547,21.137758 L99.7478706,49.3650981 L104.283855,49.3650981 L115.634536,21.1405317 L115.840829,21.1405317 L115.840829,21.1405317 Z" id="path5056" fill="#737373"></path>
                <polygon id="path5058" fill="#F1511B" points="30 30 0 30 0 0 30 0"></polygon>
                <polygon id="path5060" fill="#80CC28" points="62 30 32 30 32 0 62 0"></polygon>
                <polygon id="path5062" fill="#00ADEF" points="30 62 0 62 0 32 30 32"></polygon>
                <polygon id="path5064" fill="#FBBC09" points="62 62 32 62 32 32 62 32"></polygon>
            </g>
        </g>
    </g>
</svg>