<?xml version="1.0" encoding="UTF-8" standalone="no"?>
<svg width="3840px" height="246px" viewBox="0 0 3840 246" version="1.1" xmlns="http://www.w3.org/2000/svg" xmlns:xlink="http://www.w3.org/1999/xlink">
    <!-- Generator: Sketch 46.2 (44496) - http://www.bohemiancoding.com/sketch -->
    <title>Group Copy</title>
    <desc>Created with Sketch.</desc>
    <defs>
        <rect id="path-1" x="0" y="0" width="3840" height="296"></rect>
    </defs>
    <g id="Page-1" stroke="none" stroke-width="1" fill="none" fill-rule="evenodd">
        <g id="Group-Copy" transform="translate(0.000000, -50.000000)">
            <mask id="mask-2" fill="white">
                <use xlink:href="#path-1"></use>
            </mask>
            <g id="Mask"></g>
            <g mask="url(#mask-2)">
                <g transform="translate(-27.000000, 50.000000)">
                    <path d="" id="Path-3" stroke="#5FA217" stroke-width="12" fill="none" stroke-linecap="square"></path>
                    <path d="M12,65 C451.639019,-21.6666667 903.378195,-21.6666667 1367.21753,65 C1831.05686,151.666667 2153.7277,195 2335.23005,195 C2690.16797,183.666667 2962.42149,151.166667 3151.99061,97.5 C3436.34429,17 3847.1447,18.7000509 3875.98331,33 C3878.67223,34.3333333 3878.67223,105 3875.98331,245 L14.0161662,245 L12,65 Z" id="Path-5" stroke="none" fill="#F9F9F9" fill-rule="evenodd" opacity="0.754489272"></path>
                    <path d="M0,65 C439.639019,-21.6666667 891.378195,-21.6666667 1355.21753,65 C1819.05686,151.666667 2141.7277,195 2323.23005,195 C2678.16797,183.666667 2950.42149,151.166667 3139.99061,97.5 C3424.34429,17 3835.1447,18.7000509 3863.98331,33 C3866.67223,34.3333333 3866.67223,105 3863.98331,245 L2.0161662,245 L0,65 Z" id="Path-5" stroke="none" fill="#F9F9F9" fill-rule="evenodd" opacity="0.884561567" transform="translate(1933.000000, 122.500000) scale(-1, 1) translate(-1933.000000, -122.500000) "></path>
                    <path d="M0,203.384615 C185.13899,142.051282 370.27798,115.384615 555.41697,123.384615 C833.125455,135.384615 1098.67153,177.384615 1264.8912,183.384615 C1431.11088,189.384615 1933.82405,230 2381.80635,162.692308 C2680.46122,117.820513 3184.52577,117.820513 3894,162.692308 L3894,245.384615 L4.05361031,245.384615 L0,203.384615 Z" id="Path-6" stroke="none" fill="#F9F9F9" fill-rule="evenodd"></path>
                    <path d="" id="Path-4" stroke="#5FA217" stroke-width="12" fill="none" stroke-linecap="square"></path>
                </g>
            </g>
        </g>
    </g>
</svg>
