<?xml version="1.0" encoding="UTF-8" standalone="no"?>
<svg width="1177px" height="229px" viewBox="0 0 1177 229" version="1.1" xmlns="http://www.w3.org/2000/svg" xmlns:xlink="http://www.w3.org/1999/xlink">
    <!-- Generator: Sketch 46.2 (44496) - http://www.bohemiancoding.com/sketch -->
    <title>Group 27</title>
    <desc>Created with Sketch.</desc>
    <defs>
        <linearGradient x1="44.3359432%" y1="2.86595813%" x2="58.2211058%" y2="102.123375%" id="linearGradient-1">
            <stop stop-color="#EEAA5F" offset="0%"></stop>
            <stop stop-color="#EE922D" offset="25%"></stop>
            <stop stop-color="#EEA453" offset="50%"></stop>
            <stop stop-color="#EE8410" offset="100%"></stop>
        </linearGradient>
        <linearGradient x1="50.0000796%" y1="0%" x2="50.0000796%" y2="100.000022%" id="linearGradient-2">
            <stop stop-color="#FFFFFF" offset="50%"></stop>
            <stop stop-color="#BFBFBF" offset="100%"></stop>
        </linearGradient>
        <linearGradient x1="44.3359432%" y1="2.86607093%" x2="58.2211058%" y2="102.123437%" id="linearGradient-3">
            <stop stop-color="#ACD480" offset="0%"></stop>
            <stop stop-color="#8CC642" offset="25%"></stop>
            <stop stop-color="#A6D16F" offset="50%"></stop>
            <stop stop-color="#7BC143" offset="100%"></stop>
        </linearGradient>
        <linearGradient x1="50.0000797%" y1="0%" x2="50.0000797%" y2="99.9997546%" id="linearGradient-4">
            <stop stop-color="#FFFFFF" offset="50%"></stop>
            <stop stop-color="#BFBFBF" offset="100%"></stop>
        </linearGradient>
        <linearGradient x1="44.3361436%" y1="2.86607093%" x2="58.2213062%" y2="102.123437%" id="linearGradient-5">
            <stop stop-color="#9E639A" offset="0%"></stop>
            <stop stop-color="#802A75" offset="25%"></stop>
            <stop stop-color="#985D93" offset="50%"></stop>
            <stop stop-color="#76246F" offset="100%"></stop>
        </linearGradient>
        <linearGradient x1="50.0000767%" y1="-4.08997955e-05%" x2="50.0000767%" y2="99.9999591%" id="linearGradient-6">
            <stop stop-color="#FFFFFF" offset="50%"></stop>
            <stop stop-color="#BFBFBF" offset="100%"></stop>
        </linearGradient>
        <linearGradient x1="44.335843%" y1="2.86595813%" x2="58.2209855%" y2="102.123312%" id="linearGradient-7">
            <stop stop-color="#649DCB" offset="0%"></stop>
            <stop stop-color="#619BCA" offset="0.67%"></stop>
            <stop stop-color="#4C8FC7" offset="5.57%"></stop>
            <stop stop-color="#3F88C6" offset="10.39%"></stop>
            <stop stop-color="#3B86C5" offset="15%"></stop>
            <stop stop-color="#488CC6" offset="29.66%"></stop>
            <stop stop-color="#6199C9" offset="50%"></stop>
            <stop stop-color="#5193C7" offset="63.81%"></stop>
            <stop stop-color="#2882C2" offset="90.61%"></stop>
            <stop stop-color="#187CC0" offset="100%"></stop>
        </linearGradient>
        <linearGradient x1="50.0001914%" y1="0.000184158671%" x2="50.0001914%" y2="100.000164%" id="linearGradient-8">
            <stop stop-color="#FFFFFF" offset="50%"></stop>
            <stop stop-color="#BFBFBF" offset="100%"></stop>
        </linearGradient>
        <linearGradient x1="44.3359432%" y1="2.86607093%" x2="58.2210657%" y2="102.123375%" id="linearGradient-9">
            <stop stop-color="#F37364" offset="0%"></stop>
            <stop stop-color="#F16152" offset="15%"></stop>
            <stop stop-color="#F26758" offset="50%"></stop>
            <stop stop-color="#ED1B2F" offset="100%"></stop>
        </linearGradient>
        <linearGradient x1="49.999483%" y1="0.00016361034%" x2="49.999483%" y2="100.000194%" id="linearGradient-10">
            <stop stop-color="#FFFFFF" offset="50%"></stop>
            <stop stop-color="#BFBFBF" offset="100%"></stop>
        </linearGradient>
        <linearGradient x1="44.3359432%" y1="2.86607093%" x2="58.2210857%" y2="102.123375%" id="linearGradient-11">
            <stop stop-color="#FFE7A6" offset="0%"></stop>
            <stop stop-color="#FFD259" offset="15%"></stop>
            <stop stop-color="#FFE499" offset="50%"></stop>
            <stop stop-color="#FFC82F" offset="100%"></stop>
        </linearGradient>
        <linearGradient x1="49.9999426%" y1="-4.10180369e-05%" x2="49.9999426%" y2="100.000046%" id="linearGradient-12">
            <stop stop-color="#FFFFFF" offset="50%"></stop>
            <stop stop-color="#D9D9D9" offset="100%"></stop>
        </linearGradient>
    </defs>
    <g id="Page-1" stroke="none" stroke-width="1" fill="none" fill-rule="evenodd">
        <g id="Group-27">
            <g id="Franceinfo" transform="translate(0.000000, 76.000000)">
                <circle id="Oval" fill="#FFCC00" fill-rule="nonzero" cx="501.292" cy="34.522" r="8.959"></circle>
                <circle id="Oval" fill="#FFCC00" fill-rule="nonzero" cx="501.292" cy="68.724" r="8.959"></circle>
                <g id="Group">
                    <path d="M119.466,51.748 C119.466,49.681 119.491,47.614 119.449,45.549 C119.437,44.965 119.405,44.252 119.082,43.823 C114.496,37.742 104.585,35.482 98.453,41.176 C92.731,46.49 92.436,56.048 97.806,61.526 C103.037,66.861 112.276,66.63 117.84,61.058 C118.974,59.922 119.634,58.719 119.498,57.033 C119.357,55.282 119.466,53.51 119.466,51.748 Z" id="Shape"></path>
                    <path d="M276.451,36.42 C270.911,36.379 265.845,40.462 265.688,45.142 C272.452,45.142 279.214,45.142 285.978,45.142 C285.879,40.478 281.426,36.457 276.451,36.42 Z" id="Shape"></path>
                    <path d="M455.017,37.919 C447.393,37.911 441.632,43.859 441.642,51.729 C441.652,59.541 447.336,65.367 454.948,65.366 C462.546,65.366 468.22,59.531 468.237,51.704 C468.252,43.926 462.5,37.927 455.017,37.919 Z" id="Shape"></path>
                    <path d="M317.083,0.795 C316.188,0.475 315.257,0.262 314.342,0 C314.098,0 313.856,0 313.612,0 C313.158,0.13 312.711,0.304 312.248,0.383 C307.933,1.118 304.985,4.769 305.179,9.161 C305.376,13.654 308.578,16.84 313.382,17.326 C317.529,17.744 321.518,14.764 322.461,10.544 C323.388,6.388 321.112,2.237 317.083,0.795 Z" id="Shape" fill="#414141" fill-rule="nonzero"></path>
                    <path d="M119.96,30.58 C116.217,27.876 112.536,26.284 108.426,25.769 C104.244,25.245 100.197,25.724 96.278,27.283 C92.41,28.821 89.191,31.248 86.571,34.458 C78.835,43.936 78.578,58.211 85.934,67.969 C89.354,72.506 93.866,75.463 99.322,76.867 C106.633,78.748 113.503,77.763 119.798,72.858 C119.885,74.303 119.952,75.412 120.021,76.546 C124.286,76.546 128.385,76.546 132.568,76.546 C132.568,59.883 132.568,43.347 132.568,26.757 C128.316,26.757 124.213,26.757 119.961,26.757 C119.96,27.929 119.96,29.002 119.96,30.58 Z M117.839,61.058 C112.276,66.629 103.037,66.861 97.805,61.526 C92.435,56.048 92.73,46.49 98.452,41.176 C104.584,35.482 114.495,37.742 119.081,43.823 C119.404,44.251 119.436,44.965 119.448,45.549 C119.49,47.614 119.465,49.681 119.465,51.748 C119.465,53.51 119.356,55.282 119.497,57.033 C119.633,58.719 118.973,59.922 117.839,61.058 Z" id="Shape" fill="#414141" fill-rule="nonzero"></path>
                    <path d="M454.997,25.563 C439.996,25.521 428.149,37.108 428.229,51.745 C428.311,66.39 439.87,77.681 454.784,77.684 C469.982,77.689 481.647,66.4 481.651,51.685 C481.655,37.081 469.945,25.605 454.997,25.563 Z M454.948,65.366 C447.337,65.367 441.652,59.541 441.642,51.729 C441.632,43.859 447.393,37.911 455.017,37.919 C462.499,37.927 468.252,43.926 468.237,51.704 C468.22,59.531 462.545,65.366 454.948,65.366 Z" id="Shape" fill="#414141" fill-rule="nonzero"></path>
                    <path d="M265.934,27.819 C257.324,31.904 253.069,39.249 252.064,48.46 C251.193,56.45 252.87,63.898 258.64,69.858 C265.686,77.135 274.476,78.875 284.118,77.072 C289.82,76.006 294.709,73.318 298.327,69.155 C295.756,66.559 293.264,64.043 290.771,61.527 C285.308,66.499 279.076,68.794 271.773,65.321 C267.619,63.346 264.784,58.743 265.156,55.026 C276.557,55.026 287.969,55.026 299.622,55.026 C299.724,53.603 299.925,52.397 299.868,51.203 C299.775,49.268 299.656,47.314 299.3,45.414 C296.343,29.619 280.209,21.047 265.934,27.819 Z M265.688,45.143 C265.844,40.463 270.911,36.38 276.451,36.421 C281.427,36.457 285.88,40.479 285.978,45.143 C279.214,45.143 272.452,45.143 265.688,45.143 Z" id="Shape" fill="#414141" fill-rule="nonzero"></path>
                    <path d="M378.019,35.702 C371.206,25.291 357.057,22.404 346.709,29.313 C346.197,29.654 345.676,29.98 344.876,30.496 C344.876,28.997 344.876,27.921 344.876,26.754 C340.57,26.754 336.406,26.754 332.129,26.754 C332.129,43.381 332.129,59.935 332.129,76.502 C336.6,76.502 340.933,76.502 345.409,76.502 C345.409,75.609 345.409,74.888 345.409,74.165 C345.409,65.473 345.649,56.77 345.301,48.092 C345.143,44.154 346.858,41.949 349.874,40.243 C351.183,39.502 352.586,38.845 354.027,38.435 C360.697,36.539 366.453,39.576 367.828,45.698 C368.143,47.106 368.249,48.587 368.256,50.036 C368.296,58.12 368.276,66.205 368.276,74.289 C368.276,75 368.276,75.712 368.276,76.667 C372.586,76.667 376.533,76.649 380.48,76.679 C381.47,76.686 381.709,76.22 381.699,75.334 C381.589,65.613 381.61,55.889 381.349,46.172 C381.25,42.452 380.102,38.883 378.019,35.702 Z" id="Shape" fill="#414141" fill-rule="nonzero"></path>
                    <path d="M193.479,46.224 C192.51,29.084 173.289,19.801 158.958,29.295 C158.432,29.644 157.89,29.97 157.168,30.424 C157.095,29.001 157.039,27.884 156.979,26.719 C152.738,26.719 148.68,26.719 144.437,26.719 C144.437,43.429 144.437,59.97 144.437,76.552 C148.887,76.552 153.173,76.552 157.689,76.552 C157.689,75.721 157.689,75.008 157.689,74.296 C157.689,65.484 157.934,56.663 157.576,47.866 C157.42,44.048 159.058,41.95 161.958,40.304 C163.267,39.56 164.662,38.892 166.1,38.467 C172.716,36.509 178.638,39.54 179.995,45.57 C180.325,47.037 180.446,48.578 180.454,50.087 C180.497,58.23 180.475,66.372 180.475,74.516 C180.475,75.164 180.475,75.813 180.475,76.545 C185.042,76.545 189.376,76.545 193.719,76.545 C193.791,76.257 193.873,76.086 193.871,75.916 C193.771,66.017 194.038,56.097 193.479,46.224 Z" id="Shape" fill="#414141" fill-rule="nonzero"></path>
                    <path d="M26.396,21.726 C26.906,17.022 29.862,14.287 34.599,14.175 C36.221,14.136 37.844,14.169 39.73,14.169 C40.346,10.772 41.012,7.102 41.695,3.339 C35.547,1.349 27.57,2.178 22.215,5.146 C13.697,9.865 12.742,17.985 12.741,26.679 C8.362,26.679 4.204,26.679 0.001,26.679 C0.001,30.514 0.001,34.126 0.001,37.957 C4.269,37.957 8.427,37.957 12.775,37.957 C12.775,38.893 12.775,39.608 12.775,40.324 C12.775,48.892 12.775,57.461 12.775,66.03 C12.775,69.068 12.737,72.108 12.814,75.144 C12.826,75.652 13.325,76.577 13.616,76.583 C17.726,76.679 21.84,76.647 26.223,76.647 C26.223,63.65 26.223,50.871 26.223,37.849 C31.556,37.849 36.619,37.849 41.617,37.849 C41.617,33.987 41.617,30.373 41.617,26.655 C37.897,26.655 34.317,26.655 30.736,26.655 C30.412,26.655 30.112,26.655 29.83,26.653 L29.83,26.655 L26.174,26.655 L26.174,24.801 C26.144,24.086 26.246,23.104 26.396,21.726 Z" id="Shape" fill="#414141" fill-rule="nonzero"></path>
                    <path d="M217.995,62.062 C212.548,57.326 211.959,48.198 216.76,42.637 C222.48,36.011 230.438,36.389 238.824,43.781 C241.894,41.08 244.979,38.366 248.049,35.666 C242.754,27.444 229.631,23.483 218.828,26.734 C207.668,30.092 199.617,40.289 200.134,53.191 C200.569,64.049 208.363,73.826 219.405,76.787 C231.093,79.922 244.237,75.425 249.577,66.4 C246.21,63.879 242.837,61.353 239.467,58.831 C232.735,67.607 222.998,66.413 217.995,62.062 Z" id="Shape" fill="#414141" fill-rule="nonzero"></path>
                    <path d="M60.954,31.35 C60.872,29.608 60.806,28.197 60.739,26.765 C56.441,26.765 52.338,26.765 48.139,26.765 C48.139,43.379 48.139,59.883 48.139,76.672 C51.971,76.672 55.614,76.6 59.251,76.705 C60.873,76.753 61.435,76.349 61.418,74.604 C61.327,65.366 61.36,56.125 61.4,46.886 C61.404,46.02 61.518,44.973 62,44.32 C64.929,40.346 68.785,37.945 73.864,37.933 C75.361,37.93 76.859,38.099 78.488,38.196 C78.991,34.111 79.485,30.112 79.994,25.982 C72.798,24.838 66.468,26.116 60.954,31.35 Z" id="Shape" fill="#414141" fill-rule="nonzero"></path>
                    <path d="M307.191,28.692 C307.186,44.001 307.187,59.309 307.187,74.618 C307.187,74.922 307.079,75.294 307.214,75.514 C307.479,75.941 307.875,76.604 308.228,76.611 C312.229,76.689 316.231,76.661 320.37,76.661 C320.37,59.845 320.37,43.305 320.37,26.783 C315.936,26.783 311.655,26.783 307.272,26.783 C307.24,27.498 307.191,28.095 307.191,28.692 Z" id="Shape" fill="#414141" fill-rule="nonzero"></path>
                </g>
                <g id="Group" transform="translate(385.000000, 2.000000)">
                    <path d="M11.655,24.679 C11.911,24.689 12.117,24.671 12.3,24.637 L9.849,24.637 C10.451,24.644 11.053,24.656 11.655,24.679 Z" id="Shape"></path>
                    <path d="M26.699,24.655 C26.705,20.934 26.263,17.392 28.916,14.684 C32.043,11.491 36.073,11.993 40.125,12.494 C40.804,8.724 41.465,5.045 42.154,1.212 C37.889,0.194 33.905,-0.126 29.924,0.641 C22.215,2.125 16.32,5.962 14.275,13.986 C13.635,16.494 13.523,19.148 13.384,21.771 L13.384,24.638 L12.3,24.638 C12.117,24.672 11.911,24.689 11.655,24.68 C11.053,24.657 10.451,24.645 9.848,24.638 L9.274,24.638 L9.274,24.637 C7.758,24.631 6.242,24.656 4.726,24.656 C3.293,24.656 1.86,24.656 0.389,24.656 C0.389,28.539 0.389,32.154 0.389,35.92 C4.095,35.92 7.674,35.997 11.248,35.885 C11.613,35.874 11.916,35.891 12.172,35.939 L13.299,35.939 L13.299,37.561 C13.304,37.671 13.313,37.774 13.312,37.898 C13.239,49.385 13.273,60.873 13.273,72.361 C13.273,73.068 13.273,73.775 13.273,74.534 C17.86,74.534 22.195,74.534 26.759,74.534 C26.759,61.616 26.759,48.834 26.759,35.831 C31.994,35.831 37.002,35.831 41.963,35.831 C41.963,31.995 41.963,28.386 41.963,24.656 C39.314,24.656 36.829,24.656 34.344,24.656 C31.822,24.655 29.3,24.655 26.699,24.655 Z" id="Shape" fill="#414141" fill-rule="nonzero"></path>
                    <path d="M9.848,24.638 C9.657,24.636 9.465,24.638 9.274,24.637 L9.274,24.638 L9.848,24.638 Z" id="Shape" fill="#414141" fill-rule="nonzero"></path>
                </g>
            </g>
            <g id="FranceTV-2011" transform="translate(573.000000, 0.000000)" fill-rule="nonzero">
                <g id="Calque_3" transform="translate(1.000000, 167.000000)" fill="#187CC0">
                    <g id="Group">
                        <path d="M13.0150768,23.918112 L13.0150768,60.7874453 L5.93092105,60.7874453 L5.93092105,23.918112 L0,23.918112 L0,17.470112 L5.93092105,17.470112 L5.93092105,11.766112 C5.93092105,10.278112 6.0403136,8.88699733 6.26041667,7.59144533 C6.47920175,6.297216 6.97344518,5.16699733 7.74314693,4.202112 C8.5115307,3.23854933 9.60941009,2.466112 11.0381031,1.88744533 C12.4654781,1.30877867 14.3870965,1.01944533 16.8042763,1.01944533 C17.4632675,1.01944533 18.1492774,1.033664 18.8636239,1.06077867 C19.5766524,1.089216 20.2639803,1.13054933 20.9229715,1.18477867 L20.9229715,7.13677867 C20.5934759,7.13677867 20.2356436,7.12388267 19.8521107,7.09544533 C19.4672599,7.06833067 19.1107456,7.054112 18.78125,7.054112 C17.352557,7.054112 16.2405093,7.178112 15.4451069,7.426112 C14.6483865,7.674112 14.0717692,8.01899733 13.7152549,8.45944533 C13.3574227,8.901216 13.1514879,9.42433067 13.0974507,10.030112 C13.0420954,10.637216 13.0150768,11.325664 13.0150768,12.0967787 L13.0150768,17.470112 L20.9229715,17.470112 L20.9229715,23.918112 L13.0150768,23.918112 Z" id="Shape"></path>
                        <path d="M43.4932563,23.2567787 C42.5047695,23.2567787 41.227974,23.3265493 39.6628698,23.4634453 C38.0977656,23.601664 36.5738484,24.097664 35.0911181,24.9514453 C33.6083879,25.8065493 32.3315924,27.142112 31.2607316,28.9607787 C30.1898709,30.7794453 29.6544405,33.3705493 29.6544405,36.7314453 L29.6544405,60.7874453 L22.5702848,60.7874453 L22.5702848,17.470112 L29.4896927,17.470112 L29.4896927,25.902112 C30.0933287,23.477664 30.9582547,21.617664 32.0844707,20.322112 C33.2093687,19.0278827 34.4037903,18.077216 35.6677355,17.470112 C36.9303627,16.8643307 38.1929899,16.5194453 39.456935,16.4367787 C40.7195622,16.354112 41.8174416,16.3127787 42.7518912,16.3127787 C43.1907793,16.3127787 43.7944153,16.3269973 44.5641171,16.354112 C45.3325008,16.3825493 46.0468473,16.4509973 46.7058385,16.5607787 L46.7058385,23.2567787 L43.4932563,23.2567787 Z" id="Shape"></path>
                        <path d="M84.5966809,60.8287787 C84.1024375,60.8558933 83.6081941,60.870112 83.1139507,60.870112 C81.7406129,60.870112 80.6015466,60.7874453 79.6954337,60.622112 C78.7893207,60.4567787 78.0479556,60.1674453 77.4713383,59.754112 C76.8947209,59.3407787 76.4274962,58.7763307 76.0709819,58.0594453 C75.7131497,57.3438827 75.424841,56.461664 75.2060559,55.414112 C74.601102,56.2407787 73.9421107,57.0403307 73.2290822,57.8114453 C72.5147357,58.5838827 71.6086228,59.2865493 70.5107434,59.9194453 C69.4115461,60.553664 68.025358,61.0483413 66.3508613,61.4074453 C64.6750466,61.7652267 62.6028487,61.9447787 60.1316316,61.9447787 C57.4403114,61.9447787 55.1750291,61.6683413 53.3357845,61.118112 C51.495222,60.5678827 50.0124918,59.754112 48.8875938,58.6794453 C47.7613777,57.6047787 46.951807,56.2549973 46.4575636,54.6287787 C45.9633202,53.0038827 45.7161985,51.1154453 45.7161985,48.966112 C45.7161985,46.8167787 46.0315258,44.9709973 46.6634984,43.4274453 C47.294153,41.885216 48.5580981,40.5483307 50.4526979,39.418112 C52.3472977,38.289216 55.0244496,37.3243307 58.4841535,36.5247787 C61.9438575,35.7265493 66.5284594,34.941216 72.2405954,34.1687787 C72.8442314,34.1145493 73.3114561,33.8523307 73.6409518,33.3834453 C73.9704474,32.9158827 74.2175691,32.405664 74.3823169,31.854112 C74.5470647,31.3038827 74.6422889,30.7523307 74.6706255,30.2007787 C74.6976442,29.6505493 74.7118125,29.2087787 74.7118125,28.878112 C74.7118125,27.445664 74.5328964,26.2883307 74.1763821,25.406112 C73.8185499,24.525216 73.2419326,23.8354453 72.4465302,23.3394453 C71.6498098,22.8434453 70.620136,22.5127787 69.3575088,22.3474453 C68.0935636,22.182112 66.5838147,22.0994453 64.8269441,22.0994453 C62.5204748,22.0994453 60.667062,22.2518827 59.2667056,22.554112 C57.8663492,22.857664 56.7954885,23.3678827 56.0541234,24.0834453 C55.3127582,24.8003307 54.8313651,25.709664 54.61258,26.8114453 C54.392477,27.9145493 54.2830844,29.2643307 54.2830844,30.862112 L47.4460504,30.862112 C47.4460504,29.374112 47.5412747,27.7763307 47.7343591,26.0674453 C47.9261255,24.3598827 48.5992851,22.7749973 49.7525197,21.314112 C50.9057544,19.8545493 52.7179803,18.6558827 55.1891974,17.718112 C57.6604145,16.781664 61.2024923,16.3127787 65.8154309,16.3127787 C68.7808914,16.3127787 71.2791272,16.5607787 73.3114561,17.0567787 C75.3424671,17.5527787 77.0041135,18.3523307 78.2950773,19.454112 C79.5847231,20.557216 80.5191727,22.0038827 81.09579,23.794112 C81.6724073,25.585664 81.960716,27.7763307 81.960716,30.366112 L81.960716,51.694112 C81.960716,53.5127787 82.3172303,54.5874453 83.0315768,54.918112 C83.7446053,55.2487787 84.7614287,55.414112 86.0794112,55.414112 L86.0794112,60.7874453 C85.5851678,60.7874453 85.0909243,60.8003413 84.5966809,60.8287787 Z M74.8765603,38.6327787 C72.8995866,39.294112 71.1285477,39.777216 69.5634435,40.0794453 C67.9983394,40.3829973 66.5567961,40.6167787 65.2388136,40.782112 C62.2733531,41.1683307 59.9668838,41.637216 58.3194057,42.1874453 C56.6719276,42.7389973 55.4633377,43.373216 54.6949539,44.0887787 C53.9252522,44.805664 53.4593454,45.6323307 53.2945976,46.5687787 C53.1298498,47.5065493 53.0474759,48.5527787 53.0474759,49.710112 C53.0474759,52.190112 53.8570466,53.8847787 55.477506,54.794112 C57.0966475,55.7034453 59.1431447,56.158112 61.6143618,56.158112 C65.9518421,56.158112 69.2467982,55.166112 71.4992303,53.182112 C73.7503443,51.198112 74.8765603,48.0567787 74.8765603,43.758112 L74.8765603,38.6327787 Z" id="Shape"></path>
                        <path d="M116.474887,60.7874453 L116.474887,33.2594453 C116.474887,31.606112 116.405364,30.105216 116.268953,28.754112 C116.131223,27.4043307 115.774709,26.2469973 115.198092,25.282112 C114.621475,24.3185493 113.74238,23.5745493 112.562127,23.050112 C111.380556,22.5269973 109.774265,22.2647787 107.743254,22.2647787 C106.095775,22.2647787 104.516503,22.4585493 103.006754,22.8434453 C101.495687,23.229664 100.164854,23.9323307 99.0116198,24.9514453 C97.8583851,25.9718827 96.9381039,27.3487787 96.252094,29.0847787 C95.5647662,30.8207787 95.2224202,33.0114453 95.2224202,35.6567787 L95.2224202,60.7874453 L88.1382645,60.7874453 L88.1382645,17.470112 L95.2224202,17.470112 L95.2224202,24.166112 C95.6059531,23.3394453 96.0873462,22.4585493 96.6639635,21.5207787 C97.2405809,20.5843307 98.0359833,19.7305493 99.0528067,18.958112 C100.068312,18.1869973 101.386295,17.5527787 103.006754,17.0567787 C104.625896,16.5607787 106.644056,16.3127787 109.061236,16.3127787 C112.574977,16.3127787 115.321653,16.7958827 117.298626,17.7594453 C119.2756,18.7243307 120.717143,19.950112 121.623256,21.438112 C122.529369,22.926112 123.07765,24.5523307 123.270734,26.3154453 C123.462501,28.0798827 123.559043,29.733216 123.559043,31.2754453 L123.559043,60.7874453 L116.474887,60.7874453 Z" id="Shape"></path>
                        <path d="M164.992458,50.7434453 C164.552087,52.5905493 163.674475,54.3394453 162.356493,55.9927787 C161.03851,57.646112 159.14391,59.0514453 156.672693,60.2087787 C154.201476,61.366112 150.933539,61.9447787 146.870199,61.9447787 C144.452854,61.9447787 142.022824,61.6683413 139.580108,61.118112 C137.13591,60.5678827 134.938668,59.4647787 132.990196,57.8114453 C131.040241,56.158112 129.460804,53.857664 128.253697,50.9087787 C127.045107,47.961216 126.441471,44.0887787 126.441471,39.294112 C126.441471,31.1385493 128.266382,25.269216 131.919335,21.686112 C135.570806,18.1043307 140.746029,16.3127787 147.446816,16.3127787 C151.12514,16.3127787 154.119102,16.7958827 156.425572,17.7594453 C158.732041,18.7243307 160.530098,19.937216 161.821062,21.3967787 C163.110543,22.857664 164.003971,24.4554453 164.498214,26.1914453 C164.992458,27.9274453 165.293452,29.5394453 165.404327,31.0274453 L158.402545,31.0274453 C158.237797,29.981216 157.976507,28.9194453 157.619993,27.8447787 C157.261996,26.770112 156.685379,25.8065493 155.890141,24.9514453 C155.093421,24.097664 154.008227,23.409216 152.636372,22.8847787 C151.263034,22.361664 149.450808,22.0994453 147.199694,22.0994453 C142.311133,22.0994453 138.838743,23.4634453 136.779396,26.1914453 C134.720048,28.9194453 133.690374,33.342112 133.690374,39.4594453 C133.690374,42.2158827 133.896309,44.626112 134.308178,46.6927787 C134.720048,48.7594453 135.447245,50.4954453 136.491087,51.9007787 C137.533446,53.306112 138.906949,54.3678827 140.609782,55.0834453 C142.311133,55.8003307 144.481356,56.158112 147.11732,56.158112 C149.753285,56.158112 151.812633,55.8558827 153.295363,55.2487787 C154.778093,54.6429973 155.890141,53.8434453 156.631506,52.8514453 C157.372871,51.8594453 157.852947,50.7434453 158.07305,49.5034453 C158.29167,48.2634453 158.484919,47.037664 158.649667,45.8247787 L165.651449,45.8247787 C165.651449,47.2585493 165.431346,48.897664 164.992458,50.7434453 Z" id="Shape"></path>
                        <path d="M206.878599,39.8727787 C206.850262,40.4243307 206.837412,40.9758827 206.837412,41.526112 L174.382094,41.526112 C174.382094,43.125216 174.491487,44.7785493 174.71159,46.486112 C174.930375,48.1949973 175.465805,49.765664 176.317881,51.198112 C177.168638,52.6318827 178.472453,53.8163307 180.230641,54.7527787 C181.987512,55.6905493 184.43171,56.158112 187.561919,56.158112 C189.648285,56.158112 191.392305,55.9798827 192.792661,55.6207787 C194.193018,55.2629973 195.346252,54.7398827 196.252365,54.050112 C197.158478,53.361664 197.844488,52.493664 198.311713,51.446112 C198.77762,50.3998827 199.148302,49.1869973 199.423761,47.8087787 L206.096047,47.8087787 C205.985336,49.517664 205.64299,51.2123307 205.066373,52.8927787 C204.489756,54.5745493 203.501269,56.089664 202.100913,57.4394453 C200.700556,58.7905493 198.805956,59.878112 196.417113,60.7047787 C194.02827,61.5314453 190.939249,61.9447787 187.150049,61.9447787 C184.129233,61.9447787 181.369708,61.55856 178.871472,60.7874453 C176.371918,60.0163307 174.244365,58.7763307 172.487494,57.0674453 C170.729306,55.3598827 169.357286,53.1278827 168.368799,50.3714453 C167.380312,47.6163307 166.886069,44.2269973 166.886069,40.2034453 C166.886069,35.7949973 167.324957,32.0749973 168.204051,29.0434453 C169.081828,26.013216 170.413978,23.546112 172.199186,21.6447787 C173.983075,19.7434453 176.19432,18.3794453 178.830285,17.5527787 C181.46625,16.726112 184.541103,16.3127787 188.056162,16.3127787 C188.879901,16.3127787 189.922425,16.341216 191.18637,16.3954453 C192.448998,16.4509973 193.781148,16.6847787 195.181505,17.098112 C196.581861,17.5114453 197.982217,18.1598827 199.382574,19.0407787 C200.78293,19.9229973 202.045557,21.177216 203.171773,22.802112 C204.296671,24.4283307 205.202784,26.4949973 205.890112,29.002112 C206.576122,31.5105493 206.919786,34.582112 206.919786,38.2194453 C206.919786,38.7709973 206.905618,39.3225493 206.878599,39.8727787 Z M198.970704,30.1594453 C198.668227,28.4789973 198.077442,27.0465493 197.199665,25.8607787 C196.320571,24.6763307 195.084962,23.7527787 193.49284,23.0914453 C191.899399,22.430112 189.840051,22.0994453 187.314797,22.0994453 C184.678832,22.0994453 182.549961,22.485664 180.930819,23.2567787 C179.31036,24.029216 178.047733,25.0483307 177.14162,26.3154453 C176.235507,27.5838827 175.589366,29.0305493 175.205833,30.6554453 C174.820982,32.281664 174.546842,33.9763307 174.382094,35.7394453 L199.423761,35.7394453 C199.423761,33.701216 199.271863,31.841216 198.970704,30.1594453 Z" id="Shape"></path>
                        <path d="M226.689029,60.7874453 C225.919327,60.7874453 225.095588,60.7745493 224.217811,60.746112 C223.338717,60.7189973 222.459623,60.6363307 221.581846,60.498112 C220.702752,60.361216 219.879013,60.1403307 219.110629,59.8367787 C218.340928,59.5345493 217.681936,59.134112 217.133656,58.638112 C216.584057,58.142112 216.158019,57.522112 215.85686,56.778112 C215.554383,56.034112 215.32143,55.2629973 215.156682,54.4634453 C214.991934,53.665216 214.895392,52.865664 214.868373,52.066112 C214.840037,51.2678827 214.827186,50.5367787 214.827186,49.8754453 L214.827186,25.0754453 L209.143387,25.0754453 L209.143387,17.470112 L214.827186,17.470112 L214.827186,3.74744533 L226.277159,3.74744533 L226.277159,17.470112 L233.361315,17.470112 L233.361315,25.0754453 L226.277159,25.0754453 L226.277159,47.478112 C226.277159,48.581216 226.304178,49.4078827 226.359533,49.958112 C226.41357,50.509664 226.633673,50.9785493 227.018524,51.3634453 C227.34802,51.694112 227.745721,51.8878827 228.212946,51.942112 C228.678853,51.997664 229.160246,52.0247787 229.654489,52.0247787 L233.361315,52.0247787 L233.361315,60.7874453 L226.689029,60.7874453 Z" id="Shape"></path>
                        <path d="M247.28234,42.766112 C247.28234,46.238112 248.023705,48.8563307 249.506435,50.6194453 C250.989165,52.3838827 253.761541,53.2647787 257.826199,53.2647787 C259.58307,53.2647787 260.969258,53.113664 261.986081,52.810112 C263.001587,52.5078827 263.784139,52.1074453 264.333738,51.6114453 C264.882018,51.1154453 265.281038,50.5509973 265.528159,49.9167787 C265.775281,49.2838827 265.981216,48.6354453 266.145964,47.974112 L277.348814,47.974112 C277.128711,49.2967787 276.74386,50.7718827 276.19558,52.3967787 C275.645981,54.0229973 274.657494,55.538112 273.230119,56.9434453 C271.801426,58.3487787 269.797434,59.5345493 267.216824,60.498112 C264.634897,61.4616747 261.203529,61.9447787 256.920086,61.9447787 C249.560472,61.9447787 244.220337,60.057664 240.898362,56.282112 C237.575069,52.5078827 235.914741,46.845216 235.914741,39.294112 C235.914741,35.822112 236.285424,32.6807787 237.026789,29.870112 C237.768154,27.0594453 238.975426,24.649216 240.65124,22.6367787 C242.325737,20.625664 244.535664,19.069216 247.28234,17.966112 C250.027697,16.8643307 253.405027,16.3127787 257.41433,16.3127787 C262.192016,16.3127787 265.981216,17.1123307 268.781928,18.710112 C271.582641,20.309216 273.696026,22.361664 275.124719,24.8687787 C276.552094,27.377216 277.444039,30.2007787 277.801871,33.342112 C278.158385,36.4834453 278.254927,39.6247787 278.09018,42.766112 L247.28234,42.766112 Z M266.022403,31.110112 C265.829318,29.9527787 265.445785,28.9194453 264.869168,28.010112 C264.292551,27.1007787 263.454643,26.385216 262.356764,25.8607787 C261.257567,25.337664 259.774836,25.0754453 257.908573,25.0754453 C255.602104,25.0754453 253.789878,25.3789973 252.471896,25.9847787 C251.153913,26.5918827 250.151258,27.3629973 249.465248,28.2994453 C248.77792,29.237216 248.324864,30.2705493 248.106079,31.3994453 C247.885976,32.529664 247.694209,33.645664 247.529461,34.7474453 L266.310711,34.7474453 C266.310711,33.4803307 266.214169,32.2674453 266.022403,31.110112 Z M260.050295,12.758112 L254.613617,12.758112 L258.89706,0.0274453333 L268.617181,0.0274453333 L260.050295,12.758112 Z" id="Shape"></path>
                        <polygon id="Shape" points="284.350267 60.7874453 284.350267 1.01944533 295.800239 1.01944533 295.800239 60.7874453"></polygon>
                        <path d="M312.933023,42.766112 C312.933023,46.238112 313.674388,48.8563307 315.157118,50.6194453 C316.639848,52.3838827 319.412225,53.2647787 323.476882,53.2647787 C325.233753,53.2647787 326.619941,53.113664 327.636765,52.810112 C328.65227,52.5078827 329.434822,52.1074453 329.984421,51.6114453 C330.532701,51.1154453 330.931721,50.5509973 331.178842,49.9167787 C331.425964,49.2838827 331.631899,48.6354453 331.796647,47.974112 L342.999498,47.974112 C342.779394,49.2967787 342.394544,50.7718827 341.846263,52.3967787 C341.296664,54.0229973 340.308177,55.538112 338.880802,56.9434453 C337.452109,58.3487787 335.448117,59.5345493 332.867507,60.498112 C330.28558,61.4616747 326.854212,61.9447787 322.570769,61.9447787 C315.211155,61.9447787 309.87102,60.057664 306.549045,56.282112 C303.225752,52.5078827 301.565424,46.845216 301.565424,39.294112 C301.565424,35.822112 301.936107,32.6807787 302.677472,29.870112 C303.418837,27.0594453 304.626109,24.649216 306.301924,22.6367787 C307.97642,20.625664 310.186347,19.069216 312.933023,17.966112 C315.67838,16.8643307 319.05571,16.3127787 323.065013,16.3127787 C327.842699,16.3127787 331.631899,17.1123307 334.432612,18.710112 C337.233324,20.309216 339.346709,22.361664 340.775402,24.8687787 C342.202777,27.377216 343.094722,30.2007787 343.452554,33.342112 C343.809068,36.4834453 343.90561,39.6247787 343.740863,42.766112 L312.933023,42.766112 Z M331.673086,31.110112 C331.480001,29.9527787 331.096468,28.9194453 330.519851,28.010112 C329.943234,27.1007787 329.105326,26.385216 328.007447,25.8607787 C326.90825,25.337664 325.425519,25.0754453 323.559256,25.0754453 C321.252787,25.0754453 319.440561,25.3789973 318.122579,25.9847787 C316.804596,26.5918827 315.801941,27.3629973 315.115931,28.2994453 C314.428603,29.237216 313.975547,30.2705493 313.756762,31.3994453 C313.536659,32.529664 313.344892,33.645664 313.180144,34.7474453 L331.961394,34.7474453 C331.961394,33.4803307 331.864852,32.2674453 331.673086,31.110112 Z M325.700978,12.758112 L320.2643,12.758112 L324.547743,0.0274453333 L334.267864,0.0274453333 L325.700978,12.758112 Z" id="Shape"></path>
                        <polygon id="Shape" points="370.923921 60.7874453 360.050566 60.7874453 344.399524 17.470112 356.837984 17.470112 365.651992 48.222112 374.383625 17.470112 386.492589 17.470112"></polygon>
                        <path d="M389.45772,11.8487787 L389.45772,1.01944533 L400.907693,1.01944533 L400.907693,11.8487787 L389.45772,11.8487787 Z M389.45772,60.7874453 L389.45772,17.470112 L400.907693,17.470112 L400.907693,60.7874453 L389.45772,60.7874453 Z" id="Shape"></path>
                        <path d="M441.228895,58.638112 C437.851565,60.8416747 432.921981,61.9447787 426.442779,61.9447787 C423.312571,61.9447787 420.635419,61.6412267 418.411323,61.0354453 C416.187228,60.429664 414.346666,59.6585493 412.892272,58.7207787 C411.43656,57.7843307 410.297494,56.709664 409.473755,55.4967787 C408.650016,54.285216 408.032212,53.058112 407.620342,51.818112 C407.208473,50.578112 406.947183,49.4078827 406.83779,48.3047787 C406.727079,47.2029973 406.673042,46.238112 406.673042,45.4114453 L417.464024,45.4114453 C417.518061,46.4589973 417.600435,47.465216 417.711145,48.4287787 C417.820538,49.393664 418.150033,50.2345493 418.699632,50.950112 C419.247913,51.6669973 420.127007,52.2314453 421.335597,52.6447787 C422.542869,53.058112 424.301058,53.2647787 426.607527,53.2647787 C427.705406,53.2647787 428.762099,53.237664 429.778922,53.182112 C430.794428,53.1278827 431.686372,52.934112 432.456074,52.6034453 C433.224458,52.2727787 433.842262,51.749664 434.309487,51.0327787 C434.775394,50.317216 435.009665,49.2967787 435.009665,47.974112 C435.009665,46.982112 434.789562,46.225216 434.350674,45.7007787 C433.910468,45.177664 433.224458,44.750112 432.291326,44.4194453 C431.356877,44.0887787 430.149605,43.7994453 428.666874,43.5514453 C427.184144,43.3034453 425.398937,42.9598827 423.312571,42.518112 C420.621251,41.9678827 418.314781,41.333664 416.393163,40.6167787 C414.470226,39.901216 412.892272,39.033216 411.656663,38.0127787 C410.421055,36.993664 409.514942,35.809216 408.938325,34.458112 C408.361707,33.1083307 408.073399,31.469216 408.073399,29.5394453 C408.073399,26.949664 408.553474,24.8003307 409.514942,23.0914453 C410.475092,21.3838827 411.780224,20.0327787 413.427702,19.0407787 C415.07518,18.0487787 416.996799,17.346112 419.193876,16.9327787 C421.389634,16.5194453 423.696104,16.3127787 426.113283,16.3127787 C429.188137,16.3127787 431.768746,16.602112 433.85643,17.1807787 C435.942797,17.7594453 437.672649,18.517664 439.045986,19.454112 C440.418006,20.3918827 441.461848,21.425216 442.176195,22.554112 C442.889223,23.6843307 443.424654,24.786112 443.782486,25.8607787 C444.139,26.9354453 444.344935,27.941664 444.40029,28.878112 C444.454327,29.8158827 444.509683,30.5314453 444.565038,31.0274453 L433.774056,31.0274453 C433.663346,30.0354453 433.526935,29.1545493 433.362187,28.382112 C433.197439,27.6109973 432.839607,26.9638827 432.291326,26.4394453 C431.741728,25.9163307 430.973344,25.517216 429.984857,25.2407787 C428.99637,24.965664 427.650051,24.8274453 425.948536,24.8274453 C425.124797,24.8274453 424.301058,24.8687787 423.477319,24.9514453 C422.653579,25.034112 421.925065,25.2278827 421.29441,25.530112 C420.662438,25.833664 420.141175,26.2469973 419.729306,26.770112 C419.317436,27.2945493 419.111502,27.9687787 419.111502,28.7954453 C419.111502,29.677664 419.303268,30.366112 419.688119,30.862112 C420.071652,31.358112 420.744811,31.785664 421.70628,32.1434453 C422.66643,32.5025493 423.984412,32.846112 425.660227,33.1767787 C427.334724,33.5074453 429.462277,33.949216 432.044204,34.4994453 C436.71118,35.4914453 440.253258,37.0078827 442.670438,39.046112 C445.0863,41.085664 446.29489,44.117216 446.29489,48.1394453 C446.29489,52.934112 444.606225,56.4345493 441.228895,58.638112 Z" id="Shape"></path>
                        <path d="M452.060734,11.8487787 L452.060734,1.01944533 L463.510706,1.01944533 L463.510706,11.8487787 L452.060734,11.8487787 Z M452.060734,60.7874453 L452.060734,17.470112 L463.510706,17.470112 L463.510706,60.7874453 L452.060734,60.7874453 Z" id="Shape"></path>
                        <path d="M511.492516,48.3874453 C510.751151,51.198112 509.528393,53.609664 507.826878,55.6207787 C506.124044,57.633216 503.885781,59.189664 501.113405,60.2914453 C498.339711,61.3932267 494.894175,61.9447787 490.77548,61.9447787 C483.691324,61.9447787 478.33702,60.1545493 474.712569,56.5714453 C471.088117,52.989664 469.275891,47.285664 469.275891,39.4594453 C469.275891,34.941216 469.824172,31.1927787 470.923369,28.2167787 C472.021248,25.2407787 473.559334,22.8718827 475.536308,21.1074453 C477.513281,19.3443307 479.832601,18.1043307 482.496902,17.3874453 C485.159886,16.6718827 488.057141,16.3127787 491.187349,16.3127787 C498.436253,16.3127787 503.817575,18.1314453 507.332634,21.7687787 C510.846376,25.406112 512.604564,31.165664 512.604564,39.046112 C512.604564,42.4638827 512.233882,45.5767787 511.492516,48.3874453 Z M499.054057,28.1754453 C497.653701,26.0545493 495.168315,24.9927787 491.599219,24.9927787 C489.676282,24.9927787 488.028804,25.1994453 486.656785,25.6127787 C485.283447,26.026112 484.157231,26.7429973 483.279454,27.762112 C482.40036,28.7825493 481.755537,30.2007787 481.343668,32.0194453 C480.931798,33.838112 480.725863,36.1527787 480.725863,38.9634453 C480.725863,44.0887787 481.438892,47.7674453 482.867585,49.9994453 C484.29496,52.2314453 486.793196,53.3474453 490.36361,53.3474453 C492.670079,53.3474453 494.536343,53.0167787 495.965036,52.3554453 C497.392411,51.694112 498.49029,50.7163307 499.259992,49.4207787 C500.028376,48.1265493 500.536787,46.5274453 500.783909,44.626112 C501.031031,42.7247787 501.154592,40.534112 501.154592,38.054112 C501.154592,33.590112 500.454413,30.297664 499.054057,28.1754453 Z" id="Shape"></path>
                        <path d="M544.893816,60.7874453 L544.893816,32.102112 C544.893816,29.9527787 544.371236,28.2865493 543.328712,27.1007787 C542.28487,25.9163307 540.280878,25.3234453 537.315417,25.3234453 C534.898237,25.3234453 533.073161,25.833664 531.837553,26.8527787 C530.601944,27.873216 529.98414,29.870112 529.98414,32.846112 L529.98414,60.7874453 L518.534167,60.7874453 L518.534167,17.470112 L529.57227,17.470112 L529.57227,23.3394453 C529.791055,22.678112 530.052345,21.934112 530.354822,21.1074453 C530.655981,20.2807787 531.20558,19.5238827 532.0023,18.834112 C532.797703,18.145664 533.909751,17.5527787 535.338444,17.0567787 C536.765819,16.5607787 538.687437,16.3127787 541.104617,16.3127787 C543.575834,16.3127787 545.771593,16.5478827 547.694529,17.0154453 C549.616147,17.4843307 551.20827,18.2554453 552.472215,19.330112 C553.734843,20.4047787 554.696311,21.8243307 555.355302,23.5874453 C556.014293,25.3518827 556.343789,27.5283307 556.343789,30.118112 L556.343789,60.7874453 L544.893816,60.7874453 Z" id="Shape"></path>
                        <path d="M595.841417,58.638112 C592.464087,60.8416747 587.534503,61.9447787 581.055301,61.9447787 C577.925093,61.9447787 575.247941,61.6412267 573.023845,61.0354453 C570.79975,60.429664 568.959188,59.6585493 567.504794,58.7207787 C566.049082,57.7843307 564.910016,56.709664 564.086277,55.4967787 C563.262538,54.285216 562.644734,53.058112 562.232864,51.818112 C561.820995,50.578112 561.559704,49.4078827 561.450312,48.3047787 C561.339601,47.2029973 561.285564,46.238112 561.285564,45.4114453 L572.076546,45.4114453 C572.130583,46.4589973 572.212957,47.465216 572.323667,48.4287787 C572.43306,49.393664 572.762555,50.2345493 573.312154,50.950112 C573.860435,51.6669973 574.739529,52.2314453 575.948119,52.6447787 C577.155391,53.058112 578.913579,53.2647787 581.220049,53.2647787 C582.317928,53.2647787 583.374621,53.237664 584.391444,53.182112 C585.40695,53.1278827 586.298894,52.934112 587.068596,52.6034453 C587.83698,52.2727787 588.454784,51.749664 588.922009,51.0327787 C589.387916,50.317216 589.622187,49.2967787 589.622187,47.974112 C589.622187,46.982112 589.402084,46.225216 588.963196,45.7007787 C588.52299,45.177664 587.83698,44.750112 586.903848,44.4194453 C585.969399,44.0887787 584.762127,43.7994453 583.279396,43.5514453 C581.796666,43.3034453 580.011459,42.9598827 577.925093,42.518112 C575.233772,41.9678827 572.927303,41.333664 571.005685,40.6167787 C569.082748,39.901216 567.504794,39.033216 566.269185,38.0127787 C565.033577,36.993664 564.127464,35.809216 563.550846,34.458112 C562.974229,33.1083307 562.685921,31.469216 562.685921,29.5394453 C562.685921,26.949664 563.165996,24.8003307 564.127464,23.0914453 C565.087614,21.3838827 566.392746,20.0327787 568.040224,19.0407787 C569.687702,18.0487787 571.609321,17.346112 573.806397,16.9327787 C576.002156,16.5194453 578.308626,16.3127787 580.725805,16.3127787 C583.800658,16.3127787 586.381268,16.602112 588.468952,17.1807787 C590.555319,17.7594453 592.285171,18.517664 593.658508,19.454112 C595.030528,20.3918827 596.07437,21.425216 596.788717,22.554112 C597.501745,23.6843307 598.037175,24.786112 598.395008,25.8607787 C598.751522,26.9354453 598.957457,27.941664 599.012812,28.878112 C599.066849,29.8158827 599.122204,30.5314453 599.17756,31.0274453 L588.386578,31.0274453 C588.275868,30.0354453 588.139457,29.1545493 587.974709,28.382112 C587.809961,27.6109973 587.452129,26.9638827 586.903848,26.4394453 C586.354249,25.9163307 585.585866,25.517216 584.597379,25.2407787 C583.608892,24.965664 582.262573,24.8274453 580.561058,24.8274453 C579.737319,24.8274453 578.913579,24.8687787 578.08984,24.9514453 C577.266101,25.034112 576.537587,25.2278827 575.906932,25.530112 C575.274959,25.833664 574.753697,26.2469973 574.341828,26.770112 C573.929958,27.2945493 573.724024,27.9687787 573.724024,28.7954453 C573.724024,29.677664 573.91579,30.366112 574.300641,30.862112 C574.684174,31.358112 575.357333,31.785664 576.318802,32.1434453 C577.278952,32.5025493 578.596934,32.846112 580.272749,33.1767787 C581.947246,33.5074453 584.074799,33.949216 586.656726,34.4994453 C591.323702,35.4914453 594.86578,37.0078827 597.28296,39.046112 C599.698822,41.085664 600.907412,44.117216 600.907412,48.1394453 C600.907412,52.934112 599.218747,56.4345493 595.841417,58.638112 Z" id="Shape"></path>
                    </g>
                </g>
                <g id="Calque_1_1_">
                    <g id="France_Ô" transform="translate(518.889593, 0.000000)">
                        <path d="M0.0823634274,114.335416 C0.0823634274,116.153042 1.53245393,117.949186 3.30491489,118.327087 L80.9527066,134.882846 C82.7251676,135.260747 84.1752581,134.08276 84.1752581,132.265135 L84.1752581,2.73436965 C84.1752581,0.916744186 82.7251676,-0.26124235 80.9527066,0.116658507 L3.30491489,16.6725826 C1.53245393,17.0504835 0.0823634274,18.8467931 0.0823634274,20.6644186 L0.0823634274,114.335416 Z" id="Shape" fill="#EE8410"></path>
                        <path d="M0.988361129,113.20601 C0.988361129,115.023635 2.43845163,116.81978 4.21091259,117.197681 L79.9646749,133.349596 C81.7371359,133.727497 83.1872264,132.54951 83.1872264,130.731885 L83.1872264,4.26778458 C83.1872264,2.45015912 81.7371359,1.27217258 79.9646749,1.65007344 L4.21091259,17.8021542 C2.43845163,18.1800551 0.988361129,19.9763647 0.988361129,21.7939902 L0.988361129,113.20601 Z" id="Shape" fill="url(#linearGradient-1)"></path>
                        <path d="M0.816715746,19.9894186 C0.816715746,19.9894186 74.9171147,11.1400612 84.1742697,31.2291187 L84.1754228,71.6519523 C84.1754228,71.6519523 83.6184813,96.0337454 72.2378324,99.6931212 L34.900514,107.641597 C34.900514,107.641597 2.53300485,118.509841 0.435867258,49.42388 C-0.541127718,26.9426622 0.816715746,19.9894186 0.816715746,19.9894186 Z" id="Shape" fill="#EE8410"></path>
                        <path d="M58.3198957,37.3439412 C37.9252285,37.3439412 22.0972839,45.9530416 22.0972839,75.5643084 C22.0972839,101.003133 34.4396083,112.712442 57.6506105,112.712442 C69.8927809,112.712442 78.4528119,109.488635 84.1754228,103.937111 L84.1754228,45.765 C78.2681531,40.1159853 69.6776476,37.3439412 58.3198957,37.3439412 Z M57.1122831,96.2920135 C47.9875684,96.2920135 44.2362438,90.3695288 44.2362438,74.7584394 C44.2362438,58.0681763 48.5295198,53.8958996 58.992146,53.8958996 C68.1132367,53.8958996 71.7375569,60.0885496 71.7375569,73.4125704 C71.7377216,88.7539902 69.4588903,96.2920135 57.1122831,96.2920135 Z" id="Shape" fill="url(#linearGradient-2)"></path>
                        <polyline id="Shape" fill="#FFFFFF" points="68.0773262 36.8735067 56.7684982 29.1471114 45.4527516 37.1542472 32.7045403 37.1542472 49.8007169 22.2875581 63.7333143 22.2875581 80.8294909 36.8735067"></polyline>
                    </g>
                    <g id="France_5_1_" transform="translate(415.111674, 0.000000)">
                        <path d="M0.0823634274,114.335416 C0.0823634274,116.153042 1.53245393,117.949186 3.30491489,118.327087 L80.9527066,134.882846 C82.7251676,135.260747 84.1752581,134.08276 84.1752581,132.265135 L84.1752581,2.73436965 C84.1752581,0.916744186 82.7251676,-0.26124235 80.9527066,0.116658507 L3.30491489,16.6725826 C1.53245393,17.0504835 0.0823634274,18.8467931 0.0823634274,20.6644186 L0.0823634274,114.335416 Z" id="Shape" fill="#7BC143"></path>
                        <path d="M0.988361129,113.20601 C0.988361129,115.023635 2.43845163,116.81978 4.21091259,117.197681 L79.9646749,133.349596 C81.7371359,133.727497 83.1872264,132.54951 83.1872264,130.731885 L83.1872264,4.26778458 C83.1872264,2.45015912 81.7371359,1.27217258 79.9646749,1.65007344 L4.21091259,17.8021542 C2.43845163,18.1800551 0.988361129,19.9763647 0.988361129,21.7939902 L0.988361129,113.20601 Z" id="Shape" fill="url(#linearGradient-3)"></path>
                        <path d="M0.816715746,19.9894186 C0.816715746,19.9894186 74.9171147,11.1400612 84.1742697,31.2291187 L84.1754228,71.6519523 C84.1754228,71.6519523 83.6184813,96.0337454 72.2378324,99.6931212 L34.900514,107.641597 C34.900514,107.641597 2.53300485,118.509841 0.435867258,49.42388 C-0.541127718,26.9426622 0.816715746,19.9894186 0.816715746,19.9894186 Z" id="Shape" fill="#7BC143"></path>
                        <path d="M25.4168595,72.5515116 L43.4990911,75.480202 C45.7617792,72.7889596 48.6644311,70.8487271 53.5764212,70.8487271 C59.9892376,70.8487271 64.463219,73.111836 64.463219,81.2607466 C64.463219,89.9734517 60.1323853,92.6070257 53.7525142,92.6070257 C46.1072114,92.6070257 43.6440507,87.9157344 43.1714494,83.8777968 L22.1378067,83.8777968 C22.1378067,97.1491065 30.8021099,107.813115 52.761188,107.813115 C69.5806235,107.813115 80.8612832,101.959204 84.1754228,89.3453794 L84.1754228,72.5943084 C80.786003,60.0017993 69.450654,55.9970747 58.4108249,55.9970747 C53.8348776,55.9970747 47.8767073,57.8427907 45.2918135,60.0910282 C45.2918135,60.0910282 45.1358171,59.9292595 45.0878816,59.9542105 L46.65081,45.3560343 L84.1754228,45.3560343 L84.1754228,27.0023133 L30.0906546,27.0023133 L25.4168595,72.5515116 Z" id="Shape" fill="url(#linearGradient-4)"></path>
                    </g>
                    <g id="France_4A_2_" transform="translate(311.333756, 0.000000)">
                        <path d="M0.0823634274,114.335416 C0.0823634274,116.153042 1.53245393,117.949186 3.30491489,118.327087 L80.9527066,134.882846 C82.7251676,135.260747 84.1752581,134.08276 84.1752581,132.265135 L84.1752581,2.73436965 C84.1752581,0.916744186 82.7251676,-0.26124235 80.9527066,0.116658507 L3.30491489,16.6725826 C1.53245393,17.0504835 0.0823634274,18.8467931 0.0823634274,20.6644186 L0.0823634274,114.335416 Z" id="Shape" fill="#76246F"></path>
                        <path d="M0.988361129,113.20601 C0.988361129,115.023635 2.43845163,116.81978 4.21091259,117.197681 L79.9646749,133.349596 C81.7371359,133.727497 83.1872264,132.54951 83.1872264,130.731885 L83.1872264,4.26778458 C83.1872264,2.45015912 81.7371359,1.27217258 79.9646749,1.65007344 L4.21091259,17.8021542 C2.43845163,18.1800551 0.988361129,19.9763647 0.988361129,21.7939902 L0.988361129,113.20601 Z" id="Shape" fill="url(#linearGradient-5)"></path>
                        <path d="M0.816715746,19.9894186 C0.816715746,19.9894186 74.9171147,11.1400612 84.1742697,31.2291187 L84.1754228,71.6519523 C84.1754228,71.6519523 83.6184813,96.0337454 72.2378324,99.6931212 L34.900514,107.641597 C34.900514,107.641597 2.53300485,118.509841 0.435537804,49.42388 C-0.541127718,26.9426622 0.816715746,19.9894186 0.816715746,19.9894186 Z" id="Shape" fill="#76246F"></path>
                        <path d="M71.1488231,27.0109058 L54.5208002,27.0109058 L21.3576604,72.7112974 C19.9892744,74.4395288 19.7344419,76.1816401 19.7084151,77.1388678 L19.7084151,77.1595226 C19.7084151,77.2578397 19.7084151,77.3472338 19.7084151,77.4220869 L19.7158278,92.4011383 L54.1900287,92.4011383 L54.1867342,107.812619 L71.1488231,107.812619 L71.1488231,92.2453182 L84.1750934,92.2453182 L84.1750934,75.235814 L71.1488231,75.2219339 C71.1488231,75.2219339 71.1488231,30.1739045 71.1488231,27.0109058 Z M54.1903582,75.2035924 C54.1903582,75.2035924 37.3949728,75.2140024 37.3949728,75.2035924 C37.3949728,74.6906916 37.5722189,74.2172827 37.8405589,73.8329376 L38.7971278,72.5098715 L54.1903582,51.5024174 L54.1903582,75.2035924 L54.1903582,75.2035924 Z" id="Shape" fill="url(#linearGradient-6)"></path>
                    </g>
                    <g id="France_3" transform="translate(207.555837, 0.000000)">
                        <path d="M0.0823634274,114.335416 C0.0823634274,116.153042 1.53261866,117.949186 3.30491489,118.327087 L80.9527066,134.882846 C82.7253323,135.260747 84.1752581,134.08276 84.1752581,132.265135 L84.1752581,2.73436965 C84.1752581,0.916744186 82.7250029,-0.26124235 80.9527066,0.116658507 L3.30491489,16.6725826 C1.53261866,17.0504835 0.0823634274,18.8467931 0.0823634274,20.6644186 L0.0823634274,114.335416 Z" id="Shape" fill="#187CC0"></path>
                        <path d="M0.988361129,113.20601 C0.988361129,115.023635 2.43861636,116.81978 4.21091259,117.197681 L79.9646749,133.349596 C81.7371359,133.727497 83.1872264,132.54951 83.1872264,130.731885 L83.1872264,4.26778458 C83.1872264,2.45015912 81.7369712,1.27217258 79.9646749,1.65007344 L4.21091259,17.8021542 C2.43861636,18.1800551 0.988361129,19.9763647 0.988361129,21.7939902 L0.988361129,113.20601 Z" id="Shape" fill="url(#linearGradient-7)"></path>
                        <path d="M0.816551019,19.9894186 C0.816551019,19.9894186 74.9171147,11.1400612 84.174105,31.2291187 L84.1755875,71.6519523 C84.1755875,71.6519523 83.618646,96.0337454 72.2378324,99.6931212 L34.900514,107.641597 C34.900514,107.641597 2.53300485,118.509841 0.435867258,49.42388 C-0.540962991,26.9426622 0.816551019,19.9894186 0.816551019,19.9894186 Z" id="Shape" fill="#187CC0"></path>
                        <path d="M84.170481,73.4110832 C81.674375,64.5984088 74.4998615,59.8786965 64.4930346,58.7563953 C64.5019298,58.7563953 74.8930645,51.0756059 84.1752581,43.5258507 L84.1752581,27.0584945 L24.4994957,27.0584945 L24.4975189,45.3989963 L58.1321071,45.3989963 C58.0635807,45.4531946 37.0637071,61.7442411 37.0637071,61.7442411 L44.9305675,73.5427785 C44.9305675,73.5427785 49.6588871,71.0993941 53.9216887,71.0993941 C61.4744149,71.0993941 64.4474052,74.2739596 64.4474052,81.4281334 C64.4474052,89.1839412 60.9011655,92.610661 53.7709636,92.610661 C45.1341699,92.610661 43.364674,86.4176805 43.364674,81.974082 L22.1269348,81.974082 C21.7279663,97.0493023 30.9142888,107.812124 52.7317019,107.812124 C69.6181812,107.812124 80.9161373,101.905006 84.1703163,89.1930294 L84.1703163,73.4110832 L84.170481,73.4110832 Z" id="Shape" fill="url(#linearGradient-8)"></path>
                    </g>
                    <g id="France_2" transform="translate(103.777919, 0.000000)">
                        <path d="M0.0823634274,114.335416 C0.0823634274,116.153042 1.53261866,117.949186 3.30491489,118.327087 L80.9527066,134.882846 C82.7253323,135.260747 84.1752581,134.08276 84.1752581,132.265135 L84.1752581,2.73436965 C84.1752581,0.916744186 82.7250029,-0.26124235 80.9527066,0.116658507 L3.30491489,16.6725826 C1.53261866,17.0504835 0.0823634274,18.8467931 0.0823634274,20.6644186 L0.0823634274,114.335416 Z" id="Shape" fill="#ED1B2F"></path>
                        <path d="M0.988361129,113.20601 C0.988361129,115.023635 2.43861636,116.81978 4.21091259,117.197681 L79.9646749,133.349596 C81.7371359,133.727497 83.1872264,132.54951 83.1872264,130.731885 L83.1872264,4.26778458 C83.1872264,2.45015912 81.7369712,1.27217258 79.9646749,1.65007344 L4.21091259,17.8021542 C2.43861636,18.1798898 0.988361129,19.9763647 0.988361129,21.7939902 L0.988361129,113.20601 Z" id="Shape" fill="url(#linearGradient-9)"></path>
                        <path d="M0.816551019,19.9894186 C0.816551019,19.9894186 74.9171147,11.1400612 84.174105,31.2291187 L84.1755875,71.6519523 C84.1755875,71.6519523 83.618646,96.0337454 72.2378324,99.6931212 L34.900514,107.641597 C34.900514,107.641597 2.53300485,118.509841 0.435867258,49.42388 C-0.540962991,26.9426622 0.816551019,19.9894186 0.816551019,19.9894186 Z" id="Shape" fill="#ED1B2F"></path>
                        <path d="M84.1749286,89.0378703 L47.3894452,89.0378703 C47.3894452,89.0378703 52.4977897,86.1526377 61.3465869,81.2276989 C76.5344029,72.7729315 82.1766272,66.1633843 84.1749286,59.6614076 L84.1749286,44.2048164 C81.0673565,33.6923317 70.8658224,27.0173501 53.5515474,27.0173501 C36.4110593,27.0173501 19.9956987,33.782552 21.1906273,57.7839657 C21.1906273,57.7839657 42.5080943,57.7228274 42.8144863,57.7839657 C42.8144863,47.9018666 44.7328952,42.7214688 53.1270463,42.7214688 C60.4428954,42.7214688 63.961461,46.0042656 63.961461,51.6554284 C63.961461,57.0314688 59.1552256,60.6368115 54.450956,63.8229437 C47.9692838,68.2121787 44.9686194,70.2117319 34.4262654,77.3784639 C21.3390462,86.2806977 20.4533099,92.6906365 20.4533099,107.804853 C20.4781837,107.822368 75.571245,107.808654 84.1757523,107.804853 L84.1757523,89.0378703 L84.1749286,89.0378703 Z" id="Shape" fill="url(#linearGradient-10)"></path>
                    </g>
                    <g id="France_1">
                        <path d="M0.0823634274,114.335416 C0.0823634274,116.153042 1.53245393,117.949186 3.30491489,118.327087 L80.9527066,134.882846 C82.7253323,135.260747 84.1752581,134.08276 84.1752581,132.265135 L84.1752581,2.73436965 C84.1752581,0.916744186 82.7250029,-0.26124235 80.9527066,0.116658507 L3.30491489,16.6725826 C1.53245393,17.0506487 0.0823634274,18.8469584 0.0823634274,20.6645838 L0.0823634274,114.335416 Z" id="Shape" fill="#FFC82F"></path>
                        <path d="M0.988361129,113.20601 C0.988361129,115.023635 2.43845163,116.81978 4.21091259,117.197681 L79.9646749,133.349596 C81.7371359,133.727497 83.1872264,132.54951 83.1872264,130.731885 L83.1872264,4.26778458 C83.1872264,2.45015912 81.7369712,1.27217258 79.9646749,1.65007344 L4.21091259,17.801989 C2.43845163,18.1798898 0.988361129,19.9763647 0.988361129,21.7939902 L0.988361129,113.20601 Z" id="Shape" fill="url(#linearGradient-11)"></path>
                        <path d="M0.816551019,19.9894186 C0.816551019,19.9894186 74.9171147,11.1400612 84.174105,31.2291187 L84.1755875,71.6519523 C84.1755875,71.6519523 83.618646,96.0337454 72.2378324,99.6931212 L34.900514,107.641597 C34.900514,107.641597 2.53300485,118.509841 0.435867258,49.42388 C-0.541127718,26.9426622 0.816551019,19.9894186 0.816551019,19.9894186 Z" id="Shape" fill="#FFC82F"></path>
                        <path d="M64.9847442,96.1102509 L64.9847442,32.14388 L47.0326469,32.14388 C46.200941,33.7896573 45.684687,35.1593207 44.8262954,36.2512179 C43.4350124,38.0181151 41.8966283,39.3345716 40.2131198,40.1979437 C38.5282935,41.0634639 36.6056017,41.5930539 34.4468562,41.7880355 C32.2859694,41.9858262 29.74061,42.1239657 26.812096,42.2012974 L26.812096,56.9293513 L46.0411559,56.9293513 L46.0411559,96.1100857 L26.812096,96.1100857 L26.812096,112.702362 L45.8148212,112.702362 L45.8148212,112.712607 C38.2490815,112.713599 84.1752581,112.702362 84.1752581,112.702362 C84.1752581,112.702362 64.4874339,112.702362 64.4874339,112.709468 L64.4874339,112.702362 L84.1752581,112.702362 L84.1752581,96.1102509 L64.9847442,96.1102509 Z" id="Shape" fill="url(#linearGradient-12)"></path>
                        <g id="Group" transform="translate(52.877320, 15.367197)" fill="#FFFFFF">
                            <path d="M2.55046589,9.50717258 C2.55046589,10.2695838 2.71354548,10.8446144 3.0393752,11.2317687 C3.36520492,11.6192534 3.97403537,11.8127479 4.86701965,11.8127479 C5.25297467,11.8127479 5.55771935,11.7795349 5.78108897,11.7129437 C6.0039644,11.6465177 6.17593924,11.5586108 6.29701348,11.4497185 C6.41742881,11.3408262 6.5050635,11.2168972 6.55925863,11.077601 C6.61361849,10.9386353 6.65908311,10.7961995 6.69499356,10.6507895 L9.1561775,10.6507895 C9.10791253,10.9412791 9.0230782,11.2653121 8.9028276,11.6220624 C8.78224754,11.9793084 8.56480809,12.3119339 8.25149761,12.6204345 C7.93752823,12.9291004 7.49721334,13.1895165 6.93038824,13.4011873 C6.36273949,13.612858 5.60894941,13.718776 4.66819434,13.718776 C3.05123553,13.718776 1.87788614,13.3043574 1.1483109,12.475355 C0.417912031,11.6465177 0.053371501,10.4029315 0.053371501,8.74476132 C0.053371501,7.98235006 0.13458184,7.29247858 0.297661427,6.67531212 C0.460411559,6.05814565 0.725786522,5.52888617 1.09378632,5.08687271 C1.46162138,4.64518972 1.94740088,4.30331089 2.55063062,4.06123623 C3.15353091,3.81916157 3.89595484,3.69804162 4.77691406,3.69804162 C5.82638885,3.69804162 6.65924783,3.87369033 7.27417318,4.22449204 C7.88942798,4.57562424 8.35362826,5.02639535 8.6679271,5.57697062 C8.98123758,6.12787638 9.17726254,6.7478519 9.25583725,7.43788862 C9.3340825,8.12759486 9.35533227,8.81746634 9.31925708,9.50733782 L2.55046589,9.50717258 L2.55046589,9.50717258 Z M4.3784398,2.9174541 L2.40600044,0.121780906 L4.54135466,0.121780906 L5.53663432,2.9174541 L4.3784398,2.9174541 Z M6.66781363,6.94746022 C6.62547883,6.69332313 6.54097395,6.46645043 6.41446373,6.26667687 C6.28778878,6.06706854 6.10378888,5.90976132 5.86262876,5.7947552 C5.62097447,5.68007956 5.29514475,5.62241126 4.88530433,5.62241126 C4.3784398,5.62241126 3.98045972,5.68900245 3.69070518,5.82218482 C3.40095064,5.9553672 3.18087557,6.12473684 3.03015049,6.330459 C2.87909597,6.53634639 2.77960095,6.76338433 2.73150071,7.01124235 C2.68340046,7.25943084 2.64106566,7.5044798 2.60466103,7.74638923 L6.73106874,7.74638923 C6.73106874,7.46796206 6.70981898,7.20176255 6.66781363,6.94746022 Z" id="Shape"></path>
                            <path d="M15.8704441,5.87638311 C15.5808543,5.87638311 15.3093844,5.91901469 15.056364,6.00361689 C14.8028494,6.08838433 14.5857394,6.23957772 14.4048693,6.45752754 C14.1992902,6.72389229 14.070309,7.04462056 14.0159492,7.41971236 C13.9612599,7.7949694 13.9345741,8.09768666 13.9345741,8.32736842 L13.9345741,13.4648042 L11.4187008,13.4648042 L11.4187008,3.95234394 L13.6631042,3.95234394 L13.6631042,5.73130355 C13.7471149,5.48939412 13.8378794,5.24731946 13.9344094,5.0052448 C14.0306099,4.76333537 14.1663448,4.5455508 14.3416142,4.35156059 C14.5163894,4.15823133 14.7489837,4.00059364 15.038244,3.87963892 C15.3281633,3.75884945 15.707694,3.69804162 16.1784833,3.69804162 C16.3834035,3.69804162 16.5886532,3.70712974 16.7939028,3.725306 C16.9988231,3.74348225 17.2037433,3.76479804 17.4091577,3.78892289 L17.4091577,5.87638311 L15.8704441,5.87638311 Z" id="Shape"></path>
                            <path d="M21.3411877,9.50717258 C21.3411877,10.2695838 21.5041025,10.8446144 21.830097,11.2317687 C22.155762,11.6192534 22.7647572,11.8127479 23.6577414,11.8127479 C24.0440259,11.8127479 24.3482764,11.7795349 24.5719755,11.7129437 C24.7950156,11.6465177 24.9668258,11.5586108 25.0875705,11.4497185 C25.2083153,11.3408262 25.2961147,11.2168972 25.3501451,11.077601 C25.4041755,10.9386353 25.4496402,10.7961995 25.4857153,10.6507895 L27.9468993,10.6507895 C27.8986343,10.9412791 27.8138,11.2653121 27.6937141,11.6220624 C27.5729693,11.9793084 27.3556946,12.3119339 27.0422194,12.6204345 C26.7284147,12.9291004 26.2880999,13.1895165 25.7209453,13.4011873 C25.1539555,13.612858 24.4000006,13.718776 23.4590808,13.718776 C21.8422868,13.718776 20.6689374,13.3043574 19.9390327,12.475355 C19.2092927,11.6465177 18.8444227,10.4029315 18.8444227,8.74476132 C18.8444227,7.98235006 18.9256331,7.29247858 19.0882185,6.67531212 C19.2512981,6.05814565 19.5165083,5.52888617 19.8845081,5.08687271 C20.2526726,4.64518972 20.7381227,4.30331089 21.3415171,4.06123623 C21.9445821,3.81916157 22.6865119,3.69804162 23.5678006,3.69804162 C24.6174401,3.69804162 25.4496402,3.87369033 26.0650597,4.22449204 C26.6803145,4.57562424 27.145009,5.02639535 27.4586489,5.57697062 C27.7721241,6.12787638 27.9679843,6.7478519 28.0463943,7.43788862 C28.1252985,8.12759486 28.146054,8.81746634 28.1101436,9.50733782 L21.3411877,9.50717258 L21.3411877,9.50717258 Z M25.458206,6.94746022 C25.4158712,6.69332313 25.331531,6.46645043 25.2048561,6.26667687 C25.0781811,6.06706854 24.8940165,5.90976132 24.6526916,5.7947552 C24.4115315,5.68007956 24.0858665,5.62241126 23.6753672,5.62241126 C23.1688321,5.62241126 22.770852,5.68900245 22.4809328,5.82218482 C22.191343,5.9553672 21.9711032,6.12473684 21.8203781,6.330459 C21.6694883,6.53634639 21.5698286,6.76338433 21.5217283,7.01124235 C21.4736281,7.25943084 21.4311285,7.5044798 21.3948886,7.74638923 L25.5211316,7.74638923 C25.5216258,7.46796206 25.5005408,7.20176255 25.458206,6.94746022 Z" id="Shape"></path>
                        </g>
                    </g>
                </g>
            </g>
        </g>
    </g>
</svg>