<?xml version="1.0" encoding="UTF-8" standalone="no"?>
<!-- Created with Inkscape (http://www.inkscape.org/) -->

<svg xmlns:dc="http://purl.org/dc/elements/1.1/" xmlns:cc="http://creativecommons.org/ns#" xmlns:rdf="http://www.w3.org/1999/02/22-rdf-syntax-ns#" xmlns:svg="http://www.w3.org/2000/svg" xmlns="http://www.w3.org/2000/svg" xmlns:xlink="http://www.w3.org/1999/xlink" xmlns:sodipodi="http://sodipodi.sourceforge.net/DTD/sodipodi-0.dtd" xmlns:inkscape="http://www.inkscape.org/namespaces/inkscape" width="1200" height="483.89987" id="svg2" version="1.1" inkscape:version="0.48.5 r10040" sodipodi:docname="KING 5 2016.svg">
  <defs id="defs4">
    <linearGradient id="linearGradient3753" inkscape:collect="always">
      <stop id="stop3755" offset="0" style="stop-color:#ffb90f;stop-opacity:1" />
      <stop id="stop3757" offset="1" style="stop-color:#fef700;stop-opacity:1" />
    </linearGradient>
    <linearGradient inkscape:collect="always" id="linearGradient3739">
      <stop style="stop-color:#fdd400;stop-opacity:1" offset="0" id="stop3741" />
      <stop id="stop3749" offset="0.86980188" style="stop-color:#fcb904;stop-opacity:1" />
      <stop style="stop-color:#fdb805;stop-opacity:0" offset="1" id="stop3743" />
    </linearGradient>
    <linearGradient inkscape:collect="always" id="linearGradient3724">
      <stop style="stop-color:#ffd204;stop-opacity:1" offset="0" id="stop3726" />
      <stop style="stop-color:#fef700;stop-opacity:1" offset="1" id="stop3728" />
    </linearGradient>
    <linearGradient id="linearGradient3708" inkscape:collect="always">
      <stop id="stop3710" offset="0" style="stop-color:#efd745;stop-opacity:1" />
      <stop style="stop-color:#ffb40b;stop-opacity:1" offset="0.54505241" id="stop3714" />
      <stop id="stop3712" offset="1" style="stop-color:#fdc206;stop-opacity:1" />
    </linearGradient>
    <linearGradient inkscape:collect="always" id="linearGradient3696">
      <stop style="stop-color:#fef107;stop-opacity:1" offset="0" id="stop3698" />
      <stop style="stop-color:#ffb90f;stop-opacity:1" offset="1" id="stop3700" />
    </linearGradient>
    <linearGradient id="linearGradient3682" inkscape:collect="always">
      <stop id="stop3684" offset="0" style="stop-color:#ffc107;stop-opacity:1" />
      <stop id="stop3686" offset="1" style="stop-color:#fee507;stop-opacity:1" />
    </linearGradient>
    <linearGradient id="linearGradient3676" inkscape:collect="always">
      <stop id="stop3678" offset="0" style="stop-color:#ffc107;stop-opacity:1" />
      <stop id="stop3680" offset="1" style="stop-color:#fee507;stop-opacity:1" />
    </linearGradient>
    <linearGradient id="linearGradient3670" inkscape:collect="always">
      <stop id="stop3672" offset="0" style="stop-color:#ffc107;stop-opacity:1" />
      <stop id="stop3674" offset="1" style="stop-color:#fee507;stop-opacity:1" />
    </linearGradient>
    <linearGradient id="linearGradient3664" inkscape:collect="always">
      <stop id="stop3666" offset="0" style="stop-color:#ffc107;stop-opacity:1" />
      <stop id="stop3668" offset="1" style="stop-color:#fee507;stop-opacity:1" />
    </linearGradient>
    <linearGradient inkscape:collect="always" id="linearGradient3648">
      <stop style="stop-color:#ffc107;stop-opacity:1" offset="0" id="stop3650" />
      <stop style="stop-color:#fee507;stop-opacity:1" offset="1" id="stop3652" />
    </linearGradient>
    <clipPath clipPathUnits="userSpaceOnUse" id="clipPath4213">
      <path d="m -9,621 67.16,0 0,-629.999 -67.16,0" id="path4215" inkscape:connector-curvature="0" />
    </clipPath>
    <linearGradient x1="0" y1="0" x2="1" y2="0" gradientUnits="userSpaceOnUse" gradientTransform="matrix(-3.05e-5,-631,-631,3.05e-5,8.8506012,621.021)" spreadMethod="pad" id="linearGradient4227">
      <stop style="stop-opacity:1;stop-color:#ffffff" offset="0" id="stop4229" />
      <stop style="stop-opacity:1;stop-color:#529a34" offset="1" id="stop4231" />
      <stop style="stop-opacity:1;stop-color:#529a34" offset="1" id="stop4233" />
    </linearGradient>
    <clipPath clipPathUnits="userSpaceOnUse" id="clipPath4241">
      <path d="m 40.5,31.464 324.036,0 L 364.536,0 40.5,0" id="path4243" inkscape:connector-curvature="0" />
    </clipPath>
    <clipPath clipPathUnits="userSpaceOnUse" id="clipPath4249">
      <path d="m 162.141,22.317 0,-13.862 82.464,0 0,13.862" id="path4251" inkscape:connector-curvature="0" />
    </clipPath>
    <clipPath clipPathUnits="userSpaceOnUse" id="clipPath4413">
      <path d="m 40.036,369.83 48.177,0 0,-31.906 -48.177,0" id="path4415" inkscape:connector-curvature="0" />
    </clipPath>
    <clipPath clipPathUnits="userSpaceOnUse" id="clipPath4421">
      <path d="m 40.708,517.812 0,-177.972 48.158,0 0,177.972" id="path4423" inkscape:connector-curvature="0" />
    </clipPath>
    <clipPath clipPathUnits="userSpaceOnUse" id="clipPath4541">
      <path d="m 40.036,537.046 48.179,0 0,-24.046 -48.179,0" id="path4543" inkscape:connector-curvature="0" />
    </clipPath>
    <clipPath clipPathUnits="userSpaceOnUse" id="clipPath4549">
      <path d="m 41.374,536.094 0,-19.953 45.192,0 0,19.953" id="path4551" inkscape:connector-curvature="0" />
    </clipPath>
    <clipPath clipPathUnits="userSpaceOnUse" id="clipPath4557">
      <path d="m 41.464,516.231 0,2.146 c 0,0 0,1.847 1.796,1.847 1.996,0 43.216,0 43.216,0 l 0,-2.396 c 0,0 0,-1.597 -1.746,-1.597 -0.948,0 -43.266,0 -43.266,0" id="path4559" inkscape:connector-curvature="0" />
    </clipPath>
    <clipPath clipPathUnits="userSpaceOnUse" id="clipPath4921">
      <path d="m 41.554,518.377 0,-2.056 43.176,0 c 0.882,0 1.479,0.44 1.631,1.273 0.025,0.141 0.026,0.234 0.026,0.234 l 0,2.305 -43.127,0 c -0.986,0 -1.535,-0.596 -1.679,-1.483 -0.026,-0.163 -0.027,-0.273 -0.027,-0.273 z m -0.18,0 c 0,0.004 10e-4,0.481 0.234,0.963 0.237,0.487 0.714,0.973 1.652,0.973 l 43.306,0 0,-2.485 c 0,-0.005 0,-0.422 -0.229,-0.841 -0.234,-0.426 -0.7,-0.846 -1.607,-0.846 l -43.356,0" id="path4923" inkscape:connector-curvature="0" />
    </clipPath>
    <clipPath clipPathUnits="userSpaceOnUse" id="clipPath5349">
      <path d="m 53.826,535.533 c 0.968,0 1.789,-0.623 2.084,-1.492 0.076,1.147 1.031,2.053 2.197,2.053 1.165,0 2.12,-0.906 2.196,-2.053 0.295,0.869 1.117,1.492 2.084,1.492 1.215,0 2.201,-0.986 2.201,-2.201 0,-1.215 -0.986,-2.201 -2.201,-2.201 -1.166,0 -2.12,0.907 -2.196,2.053 -0.295,-0.867 -1.117,-1.492 -2.084,-1.492 -0.968,0 -1.79,0.625 -2.085,1.492 -0.077,-1.146 -1.031,-2.053 -2.196,-2.053 -1.216,0 -2.202,0.986 -2.202,2.201 0,1.215 0.986,2.201 2.202,2.201 z m 19.133,-2.227 -5.068,-6.171 2.887,-6.136 -6.596,0 -3.138,5.96 -1.051,-5.96 -7.392,0 1.094,6.205 7.293,0 5.352,6.102 6.619,0 z m -11.138,-2.182 -0.585,-3.316 -7.392,0 0.585,3.316 7.392,0 z m 14.903,-10.38 c -1.842,0 -7.151,0.506 -7.175,3.952 l 6.156,10e-4 c 0.209,-0.913 0.969,-1.571 1.925,-1.571 1.084,0 1.961,0.879 1.961,1.963 0,1.083 -0.877,1.962 -1.961,1.962 -0.933,0 -1.682,-0.628 -1.912,-1.513 l -5.893,0.003 3.265,7.765 11.59,0 -0.585,-3.315 -6.938,0 -0.358,-1.04 c 0.733,0.164 1.5,0.277 2.295,0.277 3.959,0 6.36,-1.7 5.927,-4.149 -0.466,-2.648 -4.427,-4.335 -8.297,-4.335" id="path5351" inkscape:connector-curvature="0" />
    </clipPath>
    <clipPath clipPathUnits="userSpaceOnUse" id="clipPath5577">
      <path d="m 61.169,530.577 -6.282,-0.004 -0.407,0.49 7.268,0" id="path5579" inkscape:connector-curvature="0" />
    </clipPath>
    <clipPath clipPathUnits="userSpaceOnUse" id="clipPath5677">
      <path d="m 60.777,528.355 0.392,2.222 0.579,0.486 -0.563,-3.193" id="path5679" inkscape:connector-curvature="0" />
    </clipPath>
    <clipPath clipPathUnits="userSpaceOnUse" id="clipPath5779">
      <path d="m 54.496,528.355 6.281,0 0.408,-0.485 -7.268,0" id="path5781" inkscape:connector-curvature="0" />
    </clipPath>
    <clipPath clipPathUnits="userSpaceOnUse" id="clipPath5981">
      <path d="m 53.917,527.87 0.579,0.485 0.391,2.218 -0.407,0.49" id="path5983" inkscape:connector-curvature="0" />
    </clipPath>
    <clipPath clipPathUnits="userSpaceOnUse" id="clipPath6083">
      <path d="m 60.436,526.656 -6.282,0 -0.408,0.487 7.268,0" id="path6085" inkscape:connector-curvature="0" />
    </clipPath>
    <clipPath clipPathUnits="userSpaceOnUse" id="clipPath6183">
      <path d="m 59.534,521.547 0.902,5.109 0.578,0.487 -1.071,-6.082" id="path6185" inkscape:connector-curvature="0" />
    </clipPath>
    <clipPath clipPathUnits="userSpaceOnUse" id="clipPath6371">
      <path d="m 53.253,521.547 6.281,0 0.409,-0.486 -7.27,0" id="path6373" inkscape:connector-curvature="0" />
    </clipPath>
    <clipPath clipPathUnits="userSpaceOnUse" id="clipPath6573">
      <path d="m 53.253,521.547 0.901,5.109 -0.408,0.487 -1.073,-6.082" id="path6575" inkscape:connector-curvature="0" />
    </clipPath>
    <clipPath clipPathUnits="userSpaceOnUse" id="clipPath6761">
      <path d="m 71.803,532.758 -5.216,0 -0.22,0.487 6.463,0" id="path6763" inkscape:connector-curvature="0" />
    </clipPath>
    <clipPath clipPathUnits="userSpaceOnUse" id="clipPath6961">
      <path d="m 67.249,527.215 4.554,5.543 1.027,0.487 -5.01,-6.102" id="path6963" inkscape:connector-curvature="0" />
    </clipPath>
    <clipPath clipPathUnits="userSpaceOnUse" id="clipPath7149">
      <path d="m 69.917,521.547 -2.668,5.668 0.571,-0.072 2.862,-6.082" id="path7151" inkscape:connector-curvature="0" />
    </clipPath>
    <clipPath clipPathUnits="userSpaceOnUse" id="clipPath7249">
      <path d="m 64.512,521.547 5.405,0 0.765,-0.486 -6.464,0" id="path7251" inkscape:connector-curvature="0" />
    </clipPath>
    <clipPath clipPathUnits="userSpaceOnUse" id="clipPath7449">
      <path d="m 61.6,527.075 2.912,-5.528 -0.294,-0.486 -3.204,6.082" id="path7451" inkscape:connector-curvature="0" />
    </clipPath>
    <clipPath clipPathUnits="userSpaceOnUse" id="clipPath7637">
      <path d="m 61.6,527.075 4.987,5.683 -0.22,0.487 -5.353,-6.102" id="path7639" inkscape:connector-curvature="0" />
    </clipPath>
    <clipPath clipPathUnits="userSpaceOnUse" id="clipPath7827">
      <path d="m 84.607,533.245 -11.477,0 0.323,-0.487 10.574,0" id="path7829" inkscape:connector-curvature="0" />
    </clipPath>
    <clipPath clipPathUnits="userSpaceOnUse" id="clipPath8029">
      <path d="m 69.611,524.634 c 0.015,-2.144 2.646,-3.83 7.113,-3.83 l 0,0.487 c -4.036,0 -6.174,1.364 -6.563,2.857" id="path8031" inkscape:connector-curvature="0" />
    </clipPath>
    <clipPath clipPathUnits="userSpaceOnUse" id="clipPath8247">
      <path d="m 73.13,533.245 -3.213,-7.644 0.731,0.486 2.805,6.671" id="path8249" inkscape:connector-curvature="0" />
    </clipPath>
    <clipPath clipPathUnits="userSpaceOnUse" id="clipPath8481">
      <path d="m 84.483,525.175 c -0.387,-2.196 -3.893,-3.884 -7.759,-3.884 l 0,-0.487 c 3.87,0 7.779,1.688 8.237,4.287" id="path8483" inkscape:connector-curvature="0" />
    </clipPath>
    <clipPath clipPathUnits="userSpaceOnUse" id="clipPath8889">
      <path d="m 79.094,528.682 c 3.942,0 5.718,-1.648 5.389,-3.507 l 0.478,-0.084 c 0.421,2.382 -1.91,4.076 -5.867,4.076" id="path8891" inkscape:connector-curvature="0" />
    </clipPath>
    <clipPath clipPathUnits="userSpaceOnUse" id="clipPath9257">
      <path d="m 69.917,525.601 5.755,-10e-4 -0.345,0.485 -4.679,0.002" id="path9259" inkscape:connector-curvature="0" />
    </clipPath>
    <clipPath clipPathUnits="userSpaceOnUse" id="clipPath9435">
      <path d="m 77.63,523.065 c -0.962,0 -1.767,0.672 -1.973,1.571 l -0.355,-0.486 c 0.372,-0.921 1.273,-1.57 2.328,-1.57" id="path9437" inkscape:connector-curvature="0" />
    </clipPath>
    <clipPath clipPathUnits="userSpaceOnUse" id="clipPath9599">
      <path d="m 79.653,525.089 c 0,-1.117 -0.906,-2.024 -2.023,-2.024 l 0,-0.485 c 1.385,0 2.509,1.123 2.509,2.509" id="path9601" inkscape:connector-curvature="0" />
    </clipPath>
    <clipPath clipPathUnits="userSpaceOnUse" id="clipPath9759">
      <path d="m 77.63,527.111 c 1.117,0 2.023,-0.905 2.023,-2.022 l 0.486,0 c 0,1.385 -1.124,2.508 -2.509,2.508" id="path9761" inkscape:connector-curvature="0" />
    </clipPath>
    <clipPath clipPathUnits="userSpaceOnUse" id="clipPath9887">
      <path d="m 75.672,525.6 c 0.226,0.869 1.016,1.511 1.958,1.511 l 0,0.486 c -1.032,0 -1.918,-0.622 -2.303,-1.512" id="path9889" inkscape:connector-curvature="0" />
    </clipPath>
    <clipPath clipPathUnits="userSpaceOnUse" id="clipPath10031">
      <path d="m 84.027,532.758 -0.391,-2.221 0.408,-0.485 0.563,3.193" id="path10033" inkscape:connector-curvature="0" />
    </clipPath>
    <clipPath clipPathUnits="userSpaceOnUse" id="clipPath10133">
      <path d="m 83.636,530.537 -6.87,0 0.347,-0.485 6.931,0" id="path10135" inkscape:connector-curvature="0" />
    </clipPath>
    <clipPath clipPathUnits="userSpaceOnUse" id="clipPath10335">
      <path d="m 76.766,530.537 -0.804,-2.343 0.744,0.673 0.407,1.185" id="path10337" inkscape:connector-curvature="0" />
    </clipPath>
    <clipPath clipPathUnits="userSpaceOnUse" id="clipPath10413">
      <path d="m 79.094,529.167 c -0.828,0 -1.628,-0.123 -2.388,-0.3 l -0.744,-0.673 0.854,0.2 c 0.737,0.171 1.497,0.288 2.278,0.288" id="path10415" inkscape:connector-curvature="0" />
    </clipPath>
    <clipPath clipPathUnits="userSpaceOnUse" id="clipPath10513">
      <path d="m 69.611,524.634 6.046,0.002 -0.355,-0.486 -5.141,-0.002" id="path10515" inkscape:connector-curvature="0" />
    </clipPath>
    <clipPath clipPathUnits="userSpaceOnUse" id="clipPath10613">
      <path d="m 55.966,533.893 c 0,1.183 0.958,2.14 2.141,2.14 1.182,0 2.14,-0.957 2.14,-2.14 0,-1.183 -0.958,-2.14 -2.14,-2.14 -1.183,0 -2.141,0.957 -2.141,2.14 z m 2.141,1.655 c -0.914,0 -1.655,-0.741 -1.655,-1.655 0,-0.913 0.741,-1.655 1.655,-1.655 0.913,0 1.655,0.742 1.655,1.655 0,0.914 -0.742,1.655 -1.655,1.655" clip-rule="evenodd" id="path10615" inkscape:connector-curvature="0" />
    </clipPath>
    <clipPath clipPathUnits="userSpaceOnUse" id="clipPath10881">
      <path d="m 51.685,533.332 c 0,1.182 0.959,2.141 2.141,2.141 1.182,0 2.14,-0.959 2.14,-2.141 0,-1.183 -0.958,-2.14 -2.14,-2.14 -1.182,0 -2.141,0.957 -2.141,2.14 z m 2.141,1.654 c -0.915,0 -1.655,-0.74 -1.655,-1.654 0,-0.913 0.74,-1.655 1.655,-1.655 0.913,0 1.654,0.742 1.654,1.655 0,0.914 -0.741,1.654 -1.654,1.654" clip-rule="evenodd" id="path10883" inkscape:connector-curvature="0" />
    </clipPath>
    <clipPath clipPathUnits="userSpaceOnUse" id="clipPath11149">
      <path d="m 60.247,533.332 c 0,1.182 0.959,2.141 2.14,2.141 1.183,0 2.14,-0.959 2.14,-2.141 0,-1.183 -0.957,-2.14 -2.14,-2.14 -1.181,0 -2.14,0.957 -2.14,2.14 z m 2.14,1.654 c -0.914,0 -1.654,-0.74 -1.654,-1.654 0,-0.913 0.74,-1.655 1.654,-1.655 0.914,0 1.656,0.742 1.656,1.655 0,0.914 -0.742,1.654 -1.656,1.654" clip-rule="evenodd" id="path11151" inkscape:connector-curvature="0" />
    </clipPath>
    <clipPath clipPathUnits="userSpaceOnUse" id="clipPath11417">
      <path d="m 60.436,526.656 -0.902,-5.109 -6.281,0 0.901,5.109 6.282,0 z m 23.809,0.032 c 0.254,-0.465 0.333,-0.98 0.238,-1.513 -0.387,-2.196 -3.893,-3.884 -7.759,-3.884 -4.036,0 -6.174,1.364 -6.563,2.857 l 5.141,0.002 c 0.372,-0.921 1.273,-1.57 2.328,-1.57 1.385,0 2.509,1.123 2.509,2.509 0,0.607 -0.217,1.164 -0.577,1.598 l 4.683,10e-4 z m -8.548,0 c -0.15,-0.181 -0.275,-0.384 -0.37,-0.603 l -4.679,0.002 0.252,0.601 4.797,0 z m -8.2,0 2.42,-5.141 -5.405,0 -2.708,5.141" clip-rule="evenodd" id="path11419" inkscape:connector-curvature="0" />
    </clipPath>
    <clipPath clipPathUnits="userSpaceOnUse" id="clipPath11765">
      <path d="m 76.557,529.926 -0.595,-1.732 0.854,0.2 c 0.737,0.171 1.497,0.288 2.278,0.288 2.812,0 4.521,-0.838 5.151,-1.995 l -4.683,10e-4 c -0.459,0.557 -1.154,0.909 -1.932,0.909 -0.778,0 -1.473,-0.352 -1.933,-0.909 l -4.797,0 1.362,3.238 4.295,0 z m -7.08,0 -2.228,-2.711 0.248,-0.527 -5.693,0 -0.204,0.387 2.503,2.851 5.374,0 z m -8.422,0 -0.278,-1.571 -6.281,0 0.277,1.571" clip-rule="evenodd" id="path11767" inkscape:connector-curvature="0" />
    </clipPath>
    <clipPath clipPathUnits="userSpaceOnUse" id="clipPath12149">
      <path d="m 58.107,535.566 c 0.924,0 1.672,-0.748 1.672,-1.673 0,-0.925 -0.748,-1.674 -1.672,-1.674 -0.924,0 -1.674,0.749 -1.674,1.674 0,0.925 0.75,1.673 1.674,1.673 z m -4.281,-0.561 c 0.924,0 1.672,-0.749 1.672,-1.673 0,-0.924 -0.748,-1.672 -1.672,-1.672 -0.924,0 -1.674,0.748 -1.674,1.672 0,0.924 0.75,1.673 1.674,1.673 z m 8.561,0 c 0.924,0 1.673,-0.749 1.673,-1.673 0,-0.924 -0.749,-1.672 -1.673,-1.672 -0.923,0 -1.672,0.748 -1.672,1.672 0,0.924 0.749,1.673 1.672,1.673 z m 9.875,-5.079 1.191,2.832 10.574,0 -0.391,-2.221 -6.87,0 -0.209,-0.611 -4.295,0 z m -8.159,0 2.484,2.832 5.216,0 -2.326,-2.832 -5.374,0 z m -9.33,0 0.114,0.651 6.282,0 -0.114,-0.651" clip-rule="evenodd" id="path12151" inkscape:connector-curvature="0" />
    </clipPath>
    <clipPath clipPathUnits="userSpaceOnUse" id="clipPath12545">
      <path d="m 67.214,527.219 4.524,5.51 -5.138,0 -4.964,-5.659 2.894,-5.494 5.339,0 -2.655,5.643 z m 0.072,-0.009 2.679,-5.694 -5.472,0 -2.929,5.562 5.01,5.711 5.293,0 -4.581,-5.579 z m 10.344,-4.661 c -1.06,0 -1.967,0.65 -2.349,1.57 l -5.08,-10e-4 c 0.409,-1.456 2.524,-2.798 6.523,-2.798 3.865,0 7.346,1.689 7.73,3.86 0.321,1.827 -1.42,3.471 -5.36,3.471 -1.125,0 -2.097,-0.246 -3.178,-0.498 l 0.828,2.415 6.867,0 0.381,2.161 -10.519,0 -2.78,-6.612 4.614,-0.002 c 0.393,0.89 1.285,1.513 2.323,1.513 1.402,0 2.539,-1.138 2.539,-2.539 0,-1.403 -1.137,-2.54 -2.539,-2.54 z m 0,0.06 c 1.368,0 2.477,1.11 2.477,2.48 0,1.369 -1.109,2.478 -2.477,2.478 -1.006,0 -1.886,-0.596 -2.283,-1.513 l -4.744,0.004 2.83,6.731 10.632,0 -0.404,-2.282 -6.874,0 -0.777,-2.269 c 1.051,0.244 1.987,0.474 3.084,0.474 3.944,0 5.752,-1.65 5.42,-3.543 -0.393,-2.221 -3.924,-3.908 -7.79,-3.908 -1.631,0 -5.934,0.348 -6.602,2.919 l 5.201,0 c 0.382,-0.946 1.278,-1.571 2.307,-1.571 z m -16.878,5.777 0.381,2.161 -6.22,0 -0.382,-2.161 6.221,0 z m 0.052,-0.061 -6.344,0 0.401,2.282 6.345,0 -0.402,-2.282 z m -1.295,-6.749 0.891,5.051 -6.221,0 -0.891,-5.051 6.221,0 z m 0.051,-0.06 -6.344,0 0.912,5.172 6.344,0 -0.912,-5.172 z m 0.189,12.377 c 0,0.907 -0.735,1.642 -1.642,1.642 -0.908,0 -1.644,-0.735 -1.644,-1.642 0,-0.907 0.736,-1.642 1.644,-1.642 0.907,0 1.642,0.735 1.642,1.642 z m 0.061,0 c 0,-0.941 -0.762,-1.704 -1.703,-1.704 -0.941,0 -1.704,0.763 -1.704,1.704 0,0.94 0.763,1.704 1.704,1.704 0.941,0 1.703,-0.764 1.703,-1.704 z m -4.342,-0.561 c 0,0.908 -0.736,1.642 -1.642,1.642 -0.907,0 -1.642,-0.734 -1.642,-1.642 0,-0.907 0.735,-1.643 1.642,-1.643 0.906,0 1.642,0.736 1.642,1.643 z m 0.06,0 c 0,-0.941 -0.761,-1.703 -1.702,-1.703 -0.941,0 -1.704,0.762 -1.704,1.703 0,0.941 0.763,1.703 1.704,1.703 0.941,0 1.702,-0.762 1.702,-1.703 z m 8.501,0 c 0,0.908 -0.735,1.642 -1.642,1.642 -0.907,0 -1.642,-0.734 -1.642,-1.642 0,-0.907 0.735,-1.643 1.642,-1.643 0.907,0 1.642,0.736 1.642,1.643 z m 0.061,0 c 0,-0.941 -0.763,-1.703 -1.703,-1.703 -0.94,0 -1.703,0.762 -1.703,1.703 0,0.941 0.763,1.703 1.703,1.703 0.94,0 1.703,-0.762 1.703,-1.703" id="path12547" inkscape:connector-curvature="0" />
    </clipPath>
    <clipPath clipPathUnits="userSpaceOnUse" id="clipPath13917">
      <path d="m 150.448,513 0,24.276 48.124,0 0,-24.276" id="path13919" inkscape:connector-curvature="0" />
    </clipPath>
    <clipPath clipPathUnits="userSpaceOnUse" id="clipPath13941">
      <path d="m 95.465,223.656 47.678,0 0,-63.447 -47.678,0" id="path13943" inkscape:connector-curvature="0" />
    </clipPath>
    <clipPath clipPathUnits="userSpaceOnUse" id="clipPath13957">
      <path d="m 150.643,160.209 47.679,0 0,63.447 -47.679,0 0,-63.447 z" id="path13959" inkscape:connector-curvature="0" />
    </clipPath>
    <clipPath clipPathUnits="userSpaceOnUse" id="clipPath13979">
      <path d="m 40.286,160.209 47.678,0 0,63.204 -47.678,0 0,-63.204 z" id="path13981" inkscape:connector-curvature="0" />
    </clipPath>
    <clipPath clipPathUnits="userSpaceOnUse" id="clipPath14011">
      <path d="m 95.215,513 48.178,0 0,24.276 -48.178,0 0,-24.276 z" id="path14013" inkscape:connector-curvature="0" />
    </clipPath>
    <clipPath clipPathUnits="userSpaceOnUse" id="clipPath14019">
      <path d="m 100.494,515.301 37.221,0 0,20.209 -37.221,0 0,-20.209 z" id="path14021" inkscape:connector-curvature="0" />
    </clipPath>
    <clipPath clipPathUnits="userSpaceOnUse" id="clipPath14027">
      <path d="m 100.494,526.921 c 0,4.743 8.333,8.589 18.61,8.589 10.279,0 18.611,-3.846 18.611,-8.589 0,-4.744 -8.332,-8.59 -18.611,-8.59 -10.277,0 -18.61,3.846 -18.61,8.59" id="path14029" inkscape:connector-curvature="0" />
    </clipPath>
    <clipPath clipPathUnits="userSpaceOnUse" id="clipPath14293">
      <path d="m 118.524,534.807 c 9.366,0.622 17.22,-2.405 17.539,-6.759 0.321,-4.356 -7.012,-8.391 -16.378,-9.013 -9.365,-0.622 -17.218,2.404 -17.539,6.76 -0.32,4.355 7.012,8.39 16.378,9.012" id="path14295" inkscape:connector-curvature="0" />
    </clipPath>
    <clipPath clipPathUnits="userSpaceOnUse" id="clipPath15109">
      <path d="m 119.116,535.172 c 0.598,0 1.19,-0.013 1.774,-0.039 -0.779,-0.003 -1.572,-0.029 -2.376,-0.083 -9.525,-0.633 -17.16,-4.749 -16.823,-9.328 0.053,-0.723 0.302,-1.407 0.719,-2.043 -0.912,0.993 -1.408,2.074 -1.408,3.201 0,4.512 8.012,8.292 18.114,8.292" id="path15111" inkscape:connector-curvature="0" />
    </clipPath>
    <clipPath clipPathUnits="userSpaceOnUse" id="clipPath16061">
      <path d="m 101.436,525.748 c -0.12,0.373 -0.181,0.751 -0.181,1.132 0,3.102 4.13,5.972 10.33,7.286 -6.082,-1.66 -10.375,-4.834 -10.149,-8.418" id="path16063" inkscape:connector-curvature="0" />
    </clipPath>
    <clipPath clipPathUnits="userSpaceOnUse" id="clipPath16381">
      <path d="m 100.494,526.921 c 0,4.743 8.333,8.589 18.61,8.589 10.279,0 18.611,-3.846 18.611,-8.589 0,-4.744 -8.332,-8.59 -18.611,-8.59 -10.277,0 -18.61,3.846 -18.61,8.59" id="path16383" inkscape:connector-curvature="0" />
    </clipPath>
    <clipPath clipPathUnits="userSpaceOnUse" id="clipPath16389">
      <path d="m 120.865,519.565 0.108,0 c 2.808,0 2.347,-4.605 -1.925,-4.604 -1.685,10e-4 -3.184,0.927 -2.887,2.623 0.158,0.9 0.786,1.609 1.551,2.204 l 1.709,1.369 3.661,0 -2.217,-1.592 z m -1.567,-2.683 c 0.981,0 1.138,1.197 0.237,1.197 -0.848,0 -1.195,-1.197 -0.237,-1.197 m -6.462,10.672 c -0.159,-0.9 0.349,-1.747 1.47,-1.748 2.389,0 3.053,3.54 0.667,3.54 -1.145,0 -1.976,-0.877 -2.137,-1.792 m -2.787,1.667 -1.871,-1.891 1.677,-2.444 c -0.425,0.812 -0.543,1.773 -0.379,2.713 0.096,0.546 0.29,1.097 0.573,1.622 m 26.866,-1.13 -0.788,-4.495 c -1.143,-0.676 -2.092,-0.982 -3.487,-0.982 -2.455,10e-4 -4.153,1.423 -4.435,3.624 l -0.7,-3.987 -5.034,4.277 -0.637,-3.631 -3.117,10e-4 0.543,3.091 c -0.914,-1.734 -2.812,-3.188 -5.437,-3.188 -1.603,10e-4 -2.751,0.543 -3.473,1.363 l 1.662,-2.424 -4.538,10e-4 -2.034,3.171 -0.557,-3.171 -3.527,0 1.911,10.881 3.527,-10e-4 -0.509,-2.901 2.367,2.52 4.383,-10e-4 -0.653,-0.661 c 0.863,0.481 1.894,0.775 3.074,0.774 2.646,0 4.048,-1.479 4.354,-3.232 l 0.615,3.504 5.007,-4.254 0.715,4.071 3.148,0 -0.529,-3.011 c 0.925,1.796 2.936,3.488 5.645,3.488 1.355,0 2.385,-0.404 3.34,-1.294 l -2.605,-2.586 c -0.477,0.415 -0.691,0.567 -1.329,0.567 -2.323,0 -2.955,-3.505 -0.808,-3.505 0.057,0 0.143,0.01 0.241,0.027 l 0.345,1.966 3.32,-0.002 z m -21.353,-6.931 1.68,-10e-4 -2.629,-3.922 -0.705,0 -1.087,3.413 -0.143,-0.809 -0.9,10e-4 -0.457,-2.605 -1.545,0.001 0.458,2.604 -0.933,0 0.232,1.319 3.377,-10e-4 1.389,0 0.406,-1.295 0.857,1.295 z m 16.233,-4.28 c 0.981,0 1.138,1.197 0.238,1.198 -0.849,0 -1.196,-1.198 -0.238,-1.198 m -5.798,4.065 -3.318,-5.985 -1.096,0 3.437,6.198 1.015,0 0.08,0 3.629,0 -0.379,-2.162 c 0.245,0.285 0.532,0.548 0.845,0.789 l 1.708,1.37 3.661,-10e-4 -2.215,-1.591 0.106,0 c 2.808,0 2.348,-4.604 -1.924,-4.604 -1.145,0 -2.204,0.427 -2.673,1.235 l -0.194,-1.107 -2.706,0 0.677,3.853 -1.006,0" id="path16391" inkscape:connector-curvature="0" />
    </clipPath>
    <clipPath clipPathUnits="userSpaceOnUse" id="clipPath16557">
      <path d="m 125.672,521.501 3.711,-0.002 -1.066,-6.069 -2.706,0 0.677,3.853 -1.005,0" id="path16559" inkscape:connector-curvature="0" />
    </clipPath>
    <clipPath clipPathUnits="userSpaceOnUse" id="clipPath16759">
      <path d="m 133.002,519.907 0.106,0 c 2.81,0 2.348,-4.606 -1.924,-4.606 -1.686,10e-4 -3.185,0.928 -2.887,2.625 0.158,0.9 0.785,1.607 1.551,2.202 l 1.709,1.369 3.661,0 -2.216,-1.59 z m -1.569,-2.685 c 0.981,0 1.139,1.198 0.238,1.199 -0.848,0 -1.196,-1.198 -0.238,-1.199" id="path16761" inkscape:connector-curvature="0" />
    </clipPath>
    <clipPath clipPathUnits="userSpaceOnUse" id="clipPath16965">
      <path d="m 125.754,521.501 -3.437,-6.199 -1.096,0 3.436,6.199" id="path16967" inkscape:connector-curvature="0" />
    </clipPath>
    <clipPath clipPathUnits="userSpaceOnUse" id="clipPath17171">
      <path d="m 118.936,517.224 c 0.981,0 1.137,1.199 0.236,1.199 -0.846,0 -1.195,-1.199 -0.236,-1.199 m 1.569,2.684 0.107,0 c 2.808,-10e-4 2.346,-4.605 -1.925,-4.604 -1.687,0 -3.185,0.927 -2.887,2.624 0.158,0.9 0.784,1.606 1.551,2.203 l 1.709,1.368 3.66,-10e-4" id="path17173" inkscape:connector-curvature="0" />
    </clipPath>
    <clipPath clipPathUnits="userSpaceOnUse" id="clipPath17377">
      <path d="m 131.433,517.222 c 0.981,0 1.139,1.198 0.238,1.199 -0.848,0 -1.196,-1.198 -0.238,-1.199 m -0.91,0.597 c 0.084,0.473 0.6,0.907 1.161,0.907 0.592,0 0.978,-0.425 0.888,-0.946 -0.091,-0.511 -0.624,-0.859 -1.183,-0.859 -0.594,0 -0.955,0.386 -0.866,0.898" clip-rule="evenodd" id="path17379" inkscape:connector-curvature="0" />
    </clipPath>
    <clipPath clipPathUnits="userSpaceOnUse" id="clipPath17485">
      <path d="m 118.936,517.224 c 0.981,0 1.137,1.199 0.236,1.199 -0.846,0 -1.195,-1.199 -0.236,-1.199 m -0.897,0.595 c 0.083,0.473 0.6,0.907 1.159,0.907 0.594,0 0.981,-0.425 0.888,-0.946 -0.089,-0.511 -0.622,-0.859 -1.182,-0.859 -0.594,0 -0.955,0.386 -0.865,0.898" clip-rule="evenodd" id="path17487" inkscape:connector-curvature="0" />
    </clipPath>
    <clipPath clipPathUnits="userSpaceOnUse" id="clipPath17593">
      <path d="m 119.168,521.197 2.611,0 0.941,0.301 -3.66,10e-4" id="path17595" inkscape:connector-curvature="0" />
    </clipPath>
    <clipPath clipPathUnits="userSpaceOnUse" id="clipPath17717">
      <path d="m 125.754,521.501 -1.097,0 0.18,-0.304 0.401,0" id="path17719" inkscape:connector-curvature="0" />
    </clipPath>
    <clipPath clipPathUnits="userSpaceOnUse" id="clipPath17759">
      <path d="m 129.021,521.197 -3.094,0 -0.255,0.304 3.711,-0.002" id="path17761" inkscape:connector-curvature="0" />
    </clipPath>
    <clipPath clipPathUnits="userSpaceOnUse" id="clipPath17885">
      <path d="m 131.652,521.197 2.612,0 0.954,0.3 -3.661,0" id="path17887" inkscape:connector-curvature="0" />
    </clipPath>
    <clipPath clipPathUnits="userSpaceOnUse" id="clipPath18013">
      <path d="m 121.389,516.618 c -0.65,-0.633 -1.67,-1.012 -2.675,-1.012 -1.036,0 -1.915,0.375 -2.34,1.012 l 5.015,0 z m 1.311,0 -0.56,-1.012 -0.404,0 0.56,1.012 0.404,0 z m 3.427,0 -0.155,-0.885 2.091,0 0.154,0.885 -2.09,0 z m 7.745,0 c -0.648,-0.633 -1.668,-1.012 -2.674,-1.012 -1.035,0 -1.915,0.375 -2.339,1.012" clip-rule="evenodd" id="path18015" inkscape:connector-curvature="0" />
    </clipPath>
    <clipPath clipPathUnits="userSpaceOnUse" id="clipPath18289">
      <path d="m 118.026,517.632 c 0.019,-0.416 0.36,-0.711 0.878,-0.711 0.504,0 0.986,0.281 1.143,0.711 l 1.96,0 c -0.105,-0.384 -0.324,-0.725 -0.618,-1.014 l -5.015,0 c -0.19,0.288 -0.289,0.629 -0.268,1.012 l 1.92,0.002 z m 5.236,0 -0.562,-1.014 -0.404,0 0.563,1.014 0.403,0 z m 3.043,0 -0.178,-1.014 2.09,0 0.179,1.014 -2.091,0 z m 4.206,0 c 0.018,-0.416 0.359,-0.711 0.878,-0.711 0.503,0 0.986,0.281 1.143,0.711 l 1.959,0 c -0.106,-0.384 -0.323,-0.725 -0.619,-1.014 l -5.013,0 c -0.191,0.288 -0.288,0.629 -0.269,1.012" clip-rule="evenodd" id="path18291" inkscape:connector-curvature="0" />
    </clipPath>
    <clipPath clipPathUnits="userSpaceOnUse" id="clipPath18581">
      <path d="m 104.49,523.705 -0.231,-1.318 -2.896,0.001 0.231,1.317 2.896,0 z m 5.653,0 0.904,-1.319 -3.743,10e-4 -0.845,1.318 3.684,0 z m 5.138,0 c -0.547,-0.166 -1.145,-0.259 -1.789,-0.259 -0.643,0 -1.206,0.093 -1.693,0.258 l 3.482,0.001 z m 5.957,0 -0.028,-0.162 -2.487,10e-4 0.028,0.161 2.487,0 z m 5.781,0 -0.081,-0.461 -0.55,0.461 0.631,0 z m 7.64,0 c -0.545,-0.226 -1.314,-0.433 -2.348,-0.433 -0.78,0 -1.477,0.151 -2.07,0.433 l 4.418,0 z m -18.553,-6.073 c 0.004,0.081 0.014,0.166 0.03,0.253 0.102,0.56 0.408,1.198 1.313,1.926 l 1.719,1.386 2.611,0 -2.712,-1.948 c 0,0 0.422,0.235 0.996,0.33 0.194,0.031 0.314,0.03 0.502,0.03 1.168,0 1.629,-0.959 1.482,-1.801 -0.011,-0.06 -0.024,-0.119 -0.04,-0.178 l -1.96,0.002 c 0.017,0.047 0.031,0.096 0.039,0.148 0.093,0.521 -0.294,0.946 -0.888,0.946 -0.559,0 -1.076,-0.434 -1.159,-0.907 -0.01,-0.065 -0.016,-0.127 -0.013,-0.187 l -1.92,0 z m 6.753,0 1.978,3.565 0.401,0 -1.976,-3.565 -0.403,0 z m 5.537,0 0.625,3.565 -3.094,0 -0.283,-1.61 1.005,0 -0.344,-1.955 2.091,0 z m 0.194,0 c 0.004,0.081 0.015,0.166 0.03,0.253 0.104,0.56 0.409,1.198 1.314,1.926 l 1.718,1.386 2.612,0 -2.713,-1.948 c 0,0 0.423,0.235 0.994,0.33 0.195,0.031 0.317,0.03 0.505,0.03 1.166,0 1.628,-0.959 1.481,-1.801 -0.011,-0.06 -0.024,-0.119 -0.04,-0.178 l -1.959,0.002 c 0.016,0.047 0.031,0.096 0.04,0.148 0.09,0.521 -0.296,0.946 -0.888,0.946 -0.561,0 -1.077,-0.434 -1.161,-0.907 -0.01,-0.065 -0.015,-0.127 -0.012,-0.187 l -1.921,0 z m -14.501,0.251 2.224,3.316 -0.949,0 -1.123,-1.683 -0.52,1.683 -1.012,0 1.058,-3.316 0.322,0 z m -4.667,3.316 -0.124,-0.711 0.932,0 -0.457,-2.605 0.934,0 0.458,2.605 0.9,0 0.124,0.711" clip-rule="evenodd" id="path18583" inkscape:connector-curvature="0" />
    </clipPath>
    <clipPath clipPathUnits="userSpaceOnUse" id="clipPath18973">
      <path d="m 108.41,526.236 1.733,-2.531 -3.684,0 -1.491,2.327 -0.07,0 -0.408,-2.327 -2.896,0 0.445,2.531 6.371,0 z m 4.3,0 c 0.293,-0.243 0.695,-0.392 1.203,-0.392 0.508,0 0.962,0.148 1.34,0.391 l 3.243,10e-4 c -0.654,-1.118 -1.752,-2.087 -3.215,-2.531 l -3.482,0 c -1.309,0.443 -2.068,1.413 -2.33,2.531 l 3.241,0 z m 8.974,0 -0.446,-2.531 -2.487,0 0.445,2.531 2.488,0 z m 5.781,0 -0.446,-2.531 -0.631,0 -3.023,2.531 4.1,0 z m 4.523,0 c 0.179,-0.063 0.379,-0.096 0.604,-0.096 0.134,0 0.362,0.04 0.567,0.092 l 0.001,0.004 2.692,0 -0.372,-2.112 c -0.179,-0.106 -0.448,-0.266 -0.821,-0.42 l -4.418,0.001 c -1.033,0.49 -1.745,1.374 -2.009,2.53" clip-rule="evenodd" id="path18975" inkscape:connector-curvature="0" />
    </clipPath>
    <clipPath clipPathUnits="userSpaceOnUse" id="clipPath19393">
      <path d="m 102.039,526.236 1.128,6.427 2.896,-0.002 -0.605,-3.451 0.067,0 2.884,3.069 3.549,0 -4.542,-4.593 0.994,-1.45 -6.371,0 z m 7.43,0 c -0.128,0.541 -0.138,1.116 -0.039,1.683 0.384,2.181 2.432,4.474 5.633,4.472 3.201,0 4.445,-2.292 4.062,-4.473 -0.099,-0.566 -0.312,-1.143 -0.629,-1.682 l -3.243,0 c 0.61,0.392 1.021,1.03 1.136,1.682 0.185,1.059 -0.419,2.077 -1.747,2.077 -1.329,0 -2.29,-1.017 -2.475,-2.076 -0.114,-0.652 0.072,-1.291 0.543,-1.683 l -3.241,0 z m 9.727,0 1.076,6.128 5.007,-4.255 0.767,4.372 2.519,0 -1.1,-6.245 -4.1,0 -1.465,1.225 -0.216,-1.225 -2.488,0 z m 9.036,0 c -0.14,0.615 -0.153,1.307 -0.022,2.059 0.365,2.078 2.554,4.665 5.808,4.664 1.545,0 2.55,-0.66 2.927,-1.02 l -2.156,-2.137 c -0.376,0.318 -0.695,0.449 -1.314,0.449 -1.237,0 -2.214,-0.899 -2.426,-2.106 -0.154,-0.878 0.185,-1.648 0.939,-1.91 l -3.756,10e-4 z m 4.928,0 0.335,1.895 2.689,-10e-4 -0.332,-1.894" clip-rule="evenodd" id="path19395" inkscape:connector-curvature="0" />
    </clipPath>
    <clipPath clipPathUnits="userSpaceOnUse" id="clipPath19823">
      <path d="m 205.822,160.209 47.679,0 0,63.447 -47.679,0 0,-63.447 z" id="path19825" inkscape:connector-curvature="0" />
    </clipPath>
    <clipPath clipPathUnits="userSpaceOnUse" id="clipPath19845">
      <path d="m 261.001,160.209 47.678,0 0,63.447 -47.678,0 0,-63.447 z" id="path19847" inkscape:connector-curvature="0" />
    </clipPath>
    <clipPath clipPathUnits="userSpaceOnUse" id="clipPath19867">
      <path d="m 316.179,160.209 47.679,0 0,63.447 -47.679,0 0,-63.447 z" id="path19869" inkscape:connector-curvature="0" />
    </clipPath>
    <clipPath clipPathUnits="userSpaceOnUse" id="clipPath19889">
      <path d="m 306.743,50.619 57.115,0 0,65.773 -57.115,0 0,-65.773 z" id="path19891" inkscape:connector-curvature="0" />
    </clipPath>
    <clipPath clipPathUnits="userSpaceOnUse" id="clipPath19911">
      <path d="m 240.129,50.62 57.114,0 0,65.772 -57.114,0 0,-65.772 z" id="path19913" inkscape:connector-curvature="0" />
    </clipPath>
    <clipPath clipPathUnits="userSpaceOnUse" id="clipPath19937">
      <path d="m 173.514,50.62 57.115,0 0,65.772 -57.115,0 0,-65.772 z" id="path19939" inkscape:connector-curvature="0" />
    </clipPath>
    <clipPath clipPathUnits="userSpaceOnUse" id="clipPath19959">
      <path d="m 106.9,50.62 57.115,0 0,65.772 -57.115,0 0,-65.772 z" id="path19961" inkscape:connector-curvature="0" />
    </clipPath>
    <clipPath clipPathUnits="userSpaceOnUse" id="clipPath19981">
      <path d="m 40.286,50.619 57.114,0 0,65.773 -57.114,0 0,-65.773 z" id="path19983" inkscape:connector-curvature="0" />
    </clipPath>
    <linearGradient inkscape:collect="always" xlink:href="#linearGradient3648" id="linearGradient3654" x1="92.727272" y1="69.406067" x2="202.75806" y2="69.406067" gradientUnits="userSpaceOnUse" />
    <linearGradient inkscape:collect="always" xlink:href="#linearGradient3682" id="linearGradient3656" x1="92.727272" y1="69.406067" x2="202.75806" y2="69.406067" gradientUnits="userSpaceOnUse" />
    <linearGradient inkscape:collect="always" xlink:href="#linearGradient3676" id="linearGradient3658" x1="92.727272" y1="69.406067" x2="202.75806" y2="69.406067" gradientUnits="userSpaceOnUse" />
    <linearGradient inkscape:collect="always" xlink:href="#linearGradient3670" id="linearGradient3660" x1="92.727272" y1="69.406067" x2="202.75806" y2="69.406067" gradientUnits="userSpaceOnUse" />
    <linearGradient inkscape:collect="always" xlink:href="#linearGradient3664" id="linearGradient3662" x1="92.727272" y1="69.406067" x2="202.75806" y2="69.406067" gradientUnits="userSpaceOnUse" />
    <radialGradient inkscape:collect="always" xlink:href="#linearGradient3696" id="radialGradient3702" cx="172.53181" cy="84.004173" fx="172.53181" fy="84.004173" r="90.395703" gradientTransform="matrix(0.97959745,4.2361747e-5,-4.1087401e-5,0.9653254,3.523538,-2.390047)" gradientUnits="userSpaceOnUse" />
    <radialGradient inkscape:collect="always" xlink:href="#linearGradient3708" id="radialGradient3706" gradientUnits="userSpaceOnUse" gradientTransform="matrix(4.0116211,4.8915601e-5,-4.8471531e-5,3.9752022,-276.08849,-39.361207)" cx="254.6467" cy="129.92879" fx="254.6467" fy="129.92879" r="51.996115" />
    <linearGradient inkscape:collect="always" xlink:href="#linearGradient3724" id="linearGradient3730" x1="243.85172" y1="75.947266" x2="376.89886" y2="75.947266" gradientUnits="userSpaceOnUse" />
    <radialGradient inkscape:collect="always" xlink:href="#linearGradient3739" id="radialGradient3745" cx="279.90637" cy="116.77605" fx="279.90637" fy="116.77605" r="66.220775" gradientTransform="matrix(0.78339076,0,0,0.50807822,59.826392,44.812825)" gradientUnits="userSpaceOnUse" />
    <linearGradient inkscape:collect="always" xlink:href="#linearGradient3753" id="linearGradient3751" gradientUnits="userSpaceOnUse" x1="253.03568" y1="75.947266" x2="376.89886" y2="75.947266" />
  </defs>
  <sodipodi:namedview id="base" pagecolor="#ffffff" bordercolor="#666666" borderopacity="1.0" inkscape:pageopacity="0.0" inkscape:pageshadow="2" inkscape:zoom="7.9195959" inkscape:cx="187.1594" inkscape:cy="17.970096" inkscape:document-units="px" inkscape:current-layer="layer1" showgrid="false" fit-margin-top="0" fit-margin-left="0" fit-margin-right="0" fit-margin-bottom="0" inkscape:window-width="1366" inkscape:window-height="706" inkscape:window-x="-8" inkscape:window-y="-8" inkscape:window-maximized="1" inkscape:object-paths="false" />
  <metadata id="metadata7">
    <rdf:RDF>
      <cc:Work rdf:about="">
        <dc:format>image/svg+xml</dc:format>
        <dc:type rdf:resource="http://purl.org/dc/dcmitype/StillImage" />
        <dc:title />
      </cc:Work>
    </rdf:RDF>
  </metadata>
  <g inkscape:label="Layer 1" inkscape:groupmode="layer" id="layer1" transform="translate(983.74731,52.074449)">
    <g id="g3622" transform="matrix(6.0635911,0,0,6.0635911,-3263.1607,-2272.3394)">
      <g transform="matrix(0.61666643,0,0,0.60330249,341.82489,366.16337)" id="g26654">
        <path sodipodi:nodetypes="csssccsssssccccccc" inkscape:connector-curvature="0" id="path3009" d="m 296.20502,91.246187 c 0,0 3.3545,-12.632114 15.7215,-12.632114 9.96121,0 15.35023,8.105544 15.48297,16.192027 0.17104,10.41984 -6.3931,16.05351 -15.68739,16.05351 -13.35983,0 -16.64126,-12.868325 -16.64126,-12.868325 l -50.96297,0 c 0,0 -4.53955,13.671255 19.077,27.306275 12.00786,6.93274 28.13813,6.98131 42.00361,6.98131 20.72455,0 40.72294,-4.13374 56.02179,-16.11329 7.88627,-6.17523 14.98911,-13.21679 14.98911,-26.043576 0,-22.465149 -28.87542,-30.352941 -48.90196,-30.352941 -14.7101,0 -21.48721,2.079964 -21.48721,2.079964 l 3.12555,-9.012426 59.20697,0 4.87146,-27.729847 -98.36601,0 -28.29194,66.139433 z" style="fill:url(#linearGradient3751);fill-opacity:1;stroke:none" />
        <path style="fill:url(#radialGradient3745);fill-opacity:1;stroke:none" d="m 296.20502,91.246187 c 0,0 3.3545,-12.632114 15.7215,-12.632114 9.96121,0 15.35023,8.105544 15.48297,16.192027 0.17104,10.41984 -6.3931,16.05351 -15.68739,16.05351 -13.35983,0 -16.64126,-12.868325 -16.64126,-12.868325 l -50.96297,0 c 0,0 -4.53955,13.671255 19.077,27.306275 12.00786,6.93274 28.13813,6.98131 42.00361,6.98131 20.72455,0 40.72294,-4.13374 56.02179,-16.11329 7.88627,-6.17523 14.98911,-13.21679 14.98911,-26.043576 0,-22.465149 -28.87542,-30.352941 -48.90196,-30.352941 -14.7101,0 -21.48721,2.079964 -21.48721,2.079964 l 3.12555,-9.012426 59.20697,0 4.87146,-27.729847 -98.36601,0 -28.29194,66.139433 z" id="path3737" inkscape:connector-curvature="0" sodipodi:nodetypes="csssccsssssccccccc" />
        <g id="g3688" style="fill-opacity:1;fill:url(#radialGradient3702)">
          <path inkscape:connector-curvature="0" id="path2998" d="m 164.01145,17.622711 c 0,9.732754 -7.85856,17.62271 -17.55257,17.62271 -9.69401,0 -17.55256,-7.889956 -17.55256,-17.62271 C 128.90632,7.8899564 136.76487,0 146.45888,0 c 9.69401,0 17.55257,7.8899564 17.55257,17.622711 z" style="fill:url(#radialGradient3702);fill-opacity:1;fill-rule:evenodd;stroke:none" />
          <path style="fill:url(#radialGradient3702);fill-opacity:1;fill-rule:evenodd;stroke:none" d="m 115.77396,40.105128 63.53728,0 -6.37037,30.718402 -63.5204,0 z" id="rect3002" inkscape:connector-curvature="0" sodipodi:nodetypes="ccccc" />
          <path sodipodi:nodetypes="ccccc" inkscape:connector-curvature="0" id="path3005" d="m 109.14965,76.936302 63.27231,0 -9.81501,53.241058 -63.520405,0 z" style="fill:url(#radialGradient3702);fill-opacity:1;fill-rule:evenodd;stroke:none" />
          <path style="fill:url(#radialGradient3702);fill-opacity:1;stroke:none" d="m 254.90352,130.13435 -57.91161,0 -28.06249,-52.310078 46.05601,-52.683317 57.93622,0 -47.39814,52.905168 z" id="path3007" inkscape:connector-curvature="0" sodipodi:nodetypes="ccccccc" />
          <path style="fill:url(#radialGradient3702);fill-opacity:1;fill-rule:evenodd;stroke:none" d="m 127.23537,22.950529 c 0,9.732754 -7.85856,17.62271 -17.55257,17.62271 -9.694006,0 -17.552556,-7.889956 -17.552556,-17.62271 0,-9.732755 7.85855,-17.6227112 17.552556,-17.6227112 9.69401,0 17.55257,7.8899562 17.55257,17.6227112 z" id="path3424" inkscape:connector-curvature="0" />
          <path inkscape:connector-curvature="0" id="path3426" d="m 200.78752,22.950529 c 0,9.732754 -7.85856,17.62271 -17.55257,17.62271 -9.694,0 -17.55255,-7.889956 -17.55255,-17.62271 0,-9.732755 7.85855,-17.6227112 17.55255,-17.6227112 9.69401,0 17.55257,7.8899562 17.55257,17.6227112 z" style="fill:url(#radialGradient3702);fill-opacity:1;fill-rule:evenodd;stroke:none" />
          <path style="fill:url(#radialGradient3706);fill-opacity:1;stroke:none" d="m 645.53125,301.09375 c -79.30449,27.67788 -111.89403,90.39198 -115.875,174.5625 l 0.21875,0.40625 216.53125,0 z" transform="matrix(0.26743595,0,0,0.27336001,55.286239,-1.3066801e-7)" id="path3704" inkscape:connector-curvature="0" sodipodi:nodetypes="ccccc" />
        </g>
      </g>
      <g transform="matrix(0.15684474,0,0,0.16095607,318.4268,418.28446)" id="g3588">
        <path id="path3433" d="m 500.044,18.9234 c 3.688,-6.022 9.807,-12.3229999 16.396,-14.9879999 11.341,-5.16 26.542,-2.94099999 35.795,5.2240004 C 561.189,17.2714 565.73,28.3894 563.588,40.8194 c 2.196,-0.405 4.413,-1.812 6.738,-2.611 13.898,-3.923 28.599,0.331 37.511,12.248 6.694,8.506 8.443,21.724 4.425,32.001 -1.994,5.169 -5.395,9.816 -9.816,13.783 l 0.445,0.448 c 12.932,0.627 25.64,10.669 29.562,22.982 4.253,12.419 0.512,25.689 -8.57,34.773 -7.42,7.334 -16.961,9.872 -27.567,9.658 h -192.55 c -15.809,0.341 -28.025,-6.663 -34.602,-20.722 -5.161,-12.068 -2.613,-27.503 7.023,-36.702 6.076,-6.354 13.689,-8.956 21.896,-10.266 -9.295,-8.624 -13.773,-20.424 -11.161,-33.078 1.866,-10.254 10.607,-20.637 20.648,-24.219 8.847,-3.519 20.83,-2.9 28.932,1.875 l 0.288,-0.352 c -2.441,-13.954 3.742,-26.543 15.317,-34.2609999 10.32,-6.98100004 26.82,-6.80100004 36.925,0.62 4.542,2.7810004 8.283,7.5569999 11.012,11.9269999" inkscape:connector-curvature="0" style="fill:white" />
        <path id="path3435" d="m 554.558,24.1364 c 4.138,8.347 1.707,19.283 -2.61,26.778 l -33.408,75.163 -0.289,0.352 -12.076,-76.25 c -0.969,-7.322 6.854,-10.446 11.459,-13.964 -0.234,-1.076 -1.418,-1.023 -2.163,-1.524 l -11.288,-0.117 -0.343,-0.341 c 0.064,-9.466 5.16,-18.207 13.794,-22.801 9.021,-5.2109999 21.725,-3.7939999 29.549,2.889 3.176,2.833 5.852,6.126 7.375,9.815" inkscape:connector-curvature="0" style="fill:#57229e;fill-opacity:1" />
        <path id="path3437" d="m 493.008,21.5244 c 2.729,5.053 4.308,10.789 3.348,17.141 l -13.623,87.305 c 0.073,0.106 -0.054,0.225 -0.161,0.276 l -3.528,-7.024 -34.144,-76.25 c -3.177,-9.818 -0.234,-20.083 6.918,-27.12 7.206,-7.3119999 19.06,-9.2949999 28.483,-5.329 4.991,2.154 9.755,6.12 12.707,11.001" inkscape:connector-curvature="0" style="fill:#bd111f;fill-opacity:1" />
        <path id="path3439" d="m 603.979,58.2794 c 4.594,7.834 3.561,19.689 -1.548,26.959 -3.164,5.106 -8.389,7.654 -12.813,11 l -70.748,48.566 h -0.162 l 0.79,-2.323 37.502,-84.65 c 5.618,-9.978 16.342,-15.03 27.684,-13.506 7.771,1.419 15.542,6.471 19.295,13.954" inkscape:connector-curvature="0" style="fill:#005cb5;fill-opacity:1" />
        <path id="path3441" d="m 443.259,57.8314 39.027,86.963 h -0.628 l -78.681,-54.227 c -8.006,-6.747 -11.288,-16.853 -8.571,-27.065 2.037,-7.653 8.39,-14.805 15.947,-17.643 12.375,-4.529 26.317,0.289 32.906,11.972" inkscape:connector-curvature="0" style="fill:#ff6a20;fill-opacity:1" />
        <path id="path3443" d="m 624.509,119.6694 c 3.922,8.283 2.377,19.625 -3.229,26.67 -5.563,6.749 -13.005,10.437 -21.736,10.202 l -83.893,0.054 70.278,-48.896 c 6.867,-4.424 17.304,-5.226 24.797,-1.644 5.787,2.272 11.235,7.943 13.783,13.614" inkscape:connector-curvature="0" style="fill:#009a3d;fill-opacity:1" />
        <path id="path3445" d="m 376.08,119.6694 c -3.911,8.283 -2.376,19.625 3.241,26.67 5.563,6.749 12.983,10.437 21.725,10.202 l 83.894,0.054 -70.281,-48.896 c -6.865,-4.424 -17.3,-5.226 -24.784,-1.644 -5.791,2.272 -11.236,7.943 -13.795,13.614" inkscape:connector-curvature="0" style="fill:#fde400;fill-opacity:1" />
      </g>
    </g>
  </g>
</svg>
