<?xml version="1.0" encoding="UTF-8" standalone="no"?>
<svg width="50px" height="50px" viewBox="0 0 50 50" version="1.1" xmlns="http://www.w3.org/2000/svg" xmlns:xlink="http://www.w3.org/1999/xlink">
    <!-- Generator: Sketch 46.2 (44496) - http://www.bohemiancoding.com/sketch -->
    <title>Page 1 Copy</title>
    <desc>Created with Sketch.</desc>
    <defs></defs>
    <g id="Page-1" stroke="none" stroke-width="1" fill="none" fill-rule="evenodd">
        <g id="Artboard" transform="translate(-829.000000, -1979.000000)" stroke="#FCB714" stroke-width="2" fill="#FCB714">
            <g id="Page-1-Copy" transform="translate(830.000000, 1980.000000)">
                <path d="M0,3.30003992 L0,44.6362728 L4.4408921e-16,44.6362728 C6.67285948e-16,46.4588124 1.47746033,47.9362728 3.3,47.9362728 L44.6547,47.9362728 L44.6547,47.9362728 C46.4772397,47.9362728 47.9547,46.4588124 47.9547,44.6362728 L47.9547,37.8786036 L47.9547,37.8786036 C47.9547,36.5458577 46.8742959,35.4654536 45.54155,35.4654536 L45.54155,35.4654536 L45.54155,35.4654536 C44.2088041,35.4654536 43.1284,36.5458577 43.1284,37.8786036 L43.1284,42.9986595 L4.8878,42.9986595 L4.8878,4.77129979 L10.0732701,4.77129979 L10.0732701,4.77129979 C11.3908171,4.77129979 12.4589,3.70321689 12.4589,2.38566985 L12.4589,2.38566985 L12.4589,2.38566985 C12.4589,1.06812282 11.3908171,3.99168399e-05 10.0732701,3.99168399e-05 L3.3,3.99168399e-05 L3.3,3.99168399e-05 C1.47746033,3.99168399e-05 -2.23196738e-16,1.47750024 0,3.30003992 Z" id="Fill-1"></path>
                <path d="M24.0675,2.42365073 L24.0675,2.42365073 L24.0675,2.42365073 C24.0675,1.08510539 25.1526054,6.9072352e-15 26.4911507,6.66133815e-15 L43.8654,6.21727604e-15 L43.8654,6.21724894e-15 C46.1297675,3.79012685e-15 47.9654,1.83563253 47.9654,4.1 L47.9654,21.4460078 L47.9654,21.4460078 C47.9654,22.7616881 46.8988303,23.8282578 45.58315,23.8282578 L45.58315,23.8282578 L45.58315,23.8282578 C44.2674697,23.8282578 43.2009,22.7616881 43.2009,21.4460078 L43.2009,8.79757173 C37.2629976,14.7250532 30.1342216,21.8535729 21.8145721,30.1831309 L21.8145517,30.1831105 C20.847024,31.1517906 19.2774175,31.1527247 18.3087374,30.185197 C18.2881585,30.1646425 18.2679429,30.1437275 18.2481,30.1224615 L18.2481,30.1224615 L18.2481,30.1224615 C17.2708144,29.0750894 17.2989476,27.4417646 18.3117237,26.4286703 C26.5307347,18.2071067 33.5863218,11.1573453 39.4785,5.27940125 C39.4320056,5.19130656 35.1023756,5.06276368 26.4896101,4.8937726 L26.4896105,4.89375166 C25.1442979,4.86735528 24.0675,3.76922229 24.0675,2.42365073 Z" id="Fill-2"></path>
            </g>
        </g>
    </g>
</svg>