<?xml version="1.0" encoding="UTF-8"?>
<svg width="147px" height="32px" viewBox="0 0 147 32" version="1.1" xmlns="http://www.w3.org/2000/svg" xmlns:xlink="http://www.w3.org/1999/xlink">
    <!-- Generator: Sketch 46.2 (44496) - http://www.bohemiancoding.com/sketch -->
    <title>Microsoft_logo Copy</title>
    <desc>Created with Sketch.</desc>
    <defs></defs>
    <g id="Page-1" stroke="none" stroke-width="1" fill="none" fill-rule="evenodd">
        <g id="Artboard-Copy-3" transform="translate(-1146.000000, -2396.000000)" fill-rule="nonzero">
            <g id="Group-26" transform="translate(1115.500000, 2178.000000)">
                <g id="Group-5" transform="translate(0.000000, 2.000000)">
                    <g id="Microsoft_logo-Copy" transform="translate(31.000000, 216.500000)">
                        <path d="M146,14.0611863 L146,11.5398851 L142.82635,11.5398851 L142.82635,7.62011459 L142.719527,7.65253231 L139.73864,8.55225407 L139.67995,8.56993646 L139.67995,11.5398851 L134.9751,11.5398851 L134.9751,9.88554118 C134.9751,9.11514358 135.149764,8.52555713 135.49382,8.13238392 C135.835592,7.74389134 136.324439,7.54643795 136.947711,7.54643795 C137.395968,7.54643795 137.860039,7.65062538 138.326922,7.85605319 L138.44395,7.90754015 L138.44395,5.25223414 L138.38895,5.2322981 C137.953345,5.0778372 137.360648,5 136.626323,5 C135.70064,5 134.859478,5.19866689 134.126031,5.59253352 C133.392057,5.98692023 132.814648,6.5499831 132.41032,7.26594666 C132.007223,7.98104343 131.802688,8.8069152 131.802688,9.72085222 L131.802688,11.5398851 L129.592858,11.5398851 L129.592858,14.0611863 L131.802688,14.0611863 L131.802688,24.6829304 L134.9751,24.6829304 L134.9751,14.0611863 L139.67995,14.0611863 L139.67995,20.8111798 C139.67995,23.5911293 141.009081,25 143.630267,25 C144.061127,25 144.514311,24.9500732 144.977321,24.8524734 C145.448428,24.7524465 145.769289,24.6524196 145.958179,24.5456318 L146,24.5213619 L146,21.9766575 L145.871023,22.0609089 C145.698819,22.1742843 145.484443,22.2666834 145.232998,22.3353327 C144.980484,22.4053689 144.769622,22.4405603 144.606387,22.4405603 C143.992246,22.4405603 143.538022,22.2772582 143.255988,21.9551613 C142.970973,21.6301173 142.826364,21.061507 142.826364,20.2663194 L142.826364,14.0611863 L146,14.0611863 L146,14.0611863 Z M122.508364,22.440803 C121.356884,22.440803 120.449125,22.0640987 119.809336,21.3221316 C119.165681,20.5763507 118.839548,19.5131534 118.839548,18.1623573 C118.839548,16.768742 119.165681,15.6779811 119.809687,14.919025 C120.449828,14.1650963 121.348977,13.7824979 122.482534,13.7824979 C123.582529,13.7824979 124.458131,14.147934 125.085269,14.8692716 C125.715745,15.5942498 126.035552,16.6763429 126.035552,18.0862537 C126.035552,19.5135002 125.734723,20.6098085 125.141499,21.3431078 C124.552492,22.0710329 123.666698,22.440803 122.508364,22.440803 L122.508364,22.440803 Z M122.649642,11.2232315 C120.452815,11.2232315 118.707935,11.8582375 117.464027,13.1107403 C116.220823,14.3634165 115.590346,16.0968111 115.590346,18.2634243 C115.590346,20.3211695 116.205711,21.9763801 117.419395,23.18225 C118.633079,24.3886399 120.284829,24.9997226 122.328253,24.9997226 C124.45778,24.9997226 126.167868,24.3558755 127.411424,23.086037 C128.654805,21.817412 129.284754,20.1004863 129.284754,17.9844932 C129.284754,15.8945037 128.693638,14.2269847 127.527222,13.0290893 C126.360279,11.8306738 124.718897,11.2232315 122.649642,11.2232315 L122.649642,11.2232315 Z M110.475458,11.2231622 C108.981152,11.2231622 107.745151,11.6002132 106.800843,12.3437405 C105.850911,13.0916017 105.369092,14.0726278 105.369092,15.2596018 C105.369092,15.8765786 105.473117,16.4247328 105.677829,16.8895024 C105.88377,17.3560055 106.202523,17.7665144 106.625828,18.1111477 C107.046145,18.4530073 107.694545,18.8111624 108.554157,19.1753851 C109.276534,19.4687048 109.815461,19.7169517 110.15776,19.9124982 C110.492327,20.1040574 110.729898,20.2968302 110.86397,20.4844022 C110.994177,20.6679871 111.060423,20.9191811 111.060423,21.2294897 C111.060423,22.1123959 110.390235,22.541974 109.011024,22.541974 C108.499509,22.541974 107.915949,22.4367464 107.276687,22.2288916 C106.637074,22.0213836 106.039457,21.7230365 105.500705,21.3404381 L105.369092,21.2473455 L105.369092,24.2604599 L105.417415,24.2826496 C105.866374,24.4870372 106.432186,24.6593539 107.099212,24.7950923 C107.765008,24.9308306 108.369829,25 108.895401,25 C110.516927,25 111.822688,24.621042 112.775431,23.8731808 C113.734324,23.1201189 114.22036,22.1160364 114.22036,20.8878035 C114.22036,20.0019503 113.958716,19.2421274 113.442984,18.6294845 C112.930941,18.0216956 112.04216,17.4638334 110.802293,16.9706334 C109.814582,16.5795404 109.181822,16.2548432 108.920881,16.0057294 C108.669252,15.7649369 108.541505,15.4244641 108.541505,14.9933258 C108.541505,14.611074 108.699124,14.3049259 109.022973,14.0568524 C109.349281,13.8075653 109.803336,13.6808415 110.373014,13.6808415 C110.901574,13.6808415 111.442434,13.763186 111.980131,13.9245811 C112.517653,14.0859763 112.989631,14.3021522 113.383767,14.5666947 L113.513271,14.6540665 L113.513271,11.7957597 L113.463543,11.7746102 C113.099982,11.6208427 112.620623,11.4892649 112.03847,11.3824771 C111.4586,11.2767295 110.932676,11.2231622 110.475458,11.2231622 L110.475458,11.2231622 Z M97.0987485,22.440803 C95.9476198,22.440803 95.0395091,22.0640987 94.3998955,21.3221316 C93.7560647,20.5763507 93.4304592,19.5135002 93.4304592,18.1623573 C93.4304592,16.768742 93.7564162,15.6779811 94.4005984,14.919025 C95.040212,14.1650963 95.9391853,13.7824979 97.0732694,13.7824979 C98.1729127,13.7824979 99.0485155,14.147934 99.6758288,14.8692716 C100.306305,15.5942498 100.626112,16.6763429 100.626112,18.0862537 C100.626112,19.5135002 100.325107,20.6098085 99.7318829,21.3431078 C99.1428761,22.0710329 98.257433,22.440803 97.0987485,22.440803 L97.0987485,22.440803 Z M97.2403772,11.2232315 C95.0430234,11.2232315 93.2981436,11.8582375 92.0547629,13.1107403 C90.811558,14.3634165 90.1807303,16.0968111 90.1807303,18.2634243 C90.1807303,20.3220362 90.7964462,21.9763801 92.0101306,23.18225 C93.2238149,24.3886399 94.8753885,24.9997226 96.9189889,24.9997226 C99.0479884,24.9997226 100.758603,24.3558755 102.00216,23.086037 C103.245189,21.817412 103.875489,20.1004863 103.875489,17.9844932 C103.875489,15.8945037 103.284198,14.2269847 102.117606,13.0290893 C100.950312,11.8306738 99.3092811,11.2232315 97.2403772,11.2232315 L97.2403772,11.2232315 Z M85.3651079,13.8158864 L85.3651079,11.5398851 L82.2313529,11.5398851 L82.2313529,24.6825837 L85.3651079,24.6825837 L85.3651079,17.9596339 C85.3651079,16.8163458 85.6278064,15.8772721 86.1461745,15.1678961 C86.6580411,14.4670145 87.3401784,14.1118065 88.172906,14.1118065 C88.4551092,14.1118065 88.7719287,14.157746 89.115106,14.248585 C89.4547689,14.3389039 89.7007742,14.4368505 89.8459172,14.5399977 L89.97753,14.6341305 L89.97753,11.5173487 L89.9267475,11.4958524 C89.6348799,11.3734625 89.2221183,11.3117475 88.6997086,11.3117475 C87.9123162,11.3117475 87.2075113,11.5613813 86.6039199,12.0528478 C86.0741301,12.484853 85.6910648,13.0772131 85.3983186,13.8158864 L85.3651079,13.8158864 L85.3651079,13.8158864 Z M76.6195353,11.2231622 C75.1819863,11.2231622 73.8995962,11.5274034 72.8087388,12.1268712 C71.7157728,12.7277258 70.8705691,13.5856686 70.2954441,14.6766029 C69.7229548,15.7649369 69.4323172,17.0361622 69.4323172,18.4537007 C69.4323172,19.6954555 69.7141689,20.835103 70.271195,21.8393589 C70.8285725,22.8453484 71.6175464,23.6323882 72.6161519,24.1782888 C73.6133516,24.7234959 74.765886,25 76.0419502,25 C77.5311604,25 78.8026559,24.7061602 79.8221718,24.1269752 L79.8632898,24.103572 L79.8632898,21.2712687 L79.731677,21.3660949 C79.2698901,21.6978998 78.7538063,21.962789 78.1985374,22.1536548 C77.6446742,22.3443473 77.1396606,22.4407336 76.697027,22.4407336 C75.4673523,22.4407336 74.4803442,22.0610823 73.7637662,21.3128743 C73.0456067,20.5634529 72.681519,19.5113505 72.681519,18.1872513 C72.681519,16.854831 73.0612456,15.775685 73.8096286,14.9792839 C74.5555516,14.1853097 75.5444925,13.7826019 76.7486881,13.7826019 C77.778747,13.7826019 78.7824483,14.1267151 79.7320285,14.8062738 L79.8632898,14.9004065 L79.8632898,11.9160693 L79.8209418,11.8924928 C79.4635313,11.6952128 78.9762653,11.5322574 78.3710925,11.408654 C77.7687311,11.2853973 77.1795486,11.2231622 76.6195353,11.2231622 L76.6195353,11.2231622 Z M67.2740431,11.5399197 L64.1402881,11.5399197 L64.1402881,24.6826184 L67.2740431,24.6826184 L67.2740431,11.5399197 Z M65.7391463,5.94101535 C65.2234139,5.94101535 64.7735758,6.11419879 64.4040409,6.45744524 C64.0329244,6.80173183 63.8445547,7.23512382 63.8445547,7.74652636 C63.8445547,8.24995449 64.0306401,8.67537207 64.3980664,9.01047075 C64.7632085,9.34452929 65.2144523,9.51389888 65.7391463,9.51389888 C66.2636646,9.51389888 66.7166656,9.34452929 67.0862006,9.01099082 C67.4581956,8.67537207 67.646741,8.24995449 67.646741,7.74652636 C67.646741,7.25297957 67.4632914,6.8239215 67.1014881,6.47131378 C66.7402118,6.11939949 66.2817635,5.94101535 65.7391463,5.94101535 L65.7391463,5.94101535 Z M57.9204145,10.5702658 L57.9204145,24.682549 L61.1184823,24.682549 L61.1184823,6.34348048 L56.6923213,6.34348048 L51.066182,19.965164 L45.6064477,6.34348048 L41,6.34348048 L41,24.682549 L44.0053052,24.682549 L44.0053052,10.568879 L44.1086273,10.568879 L49.8739353,24.682549 L52.1419277,24.682549 L57.817268,10.5702658 L57.9204145,10.5702658 L57.9204145,10.5702658 Z" id="path5056" fill="#737373"></path>
                        <polygon id="path5058" fill="#F1511B" points="15 15 0 15 0 0 15 0"></polygon>
                        <polygon id="path5060" fill="#80CC28" points="31 15 16 15 16 0 31 0"></polygon>
                        <polygon id="path5062" fill="#00ADEF" points="15 31 0 31 0 16 15 16"></polygon>
                        <polygon id="path5064" fill="#FBBC09" points="31 31 16 31 16 16 31 16"></polygon>
                    </g>
                </g>
            </g>
        </g>
    </g>
</svg>