<?xml version="1.0" encoding="UTF-8" standalone="no"?>
<svg width="114px" height="118px" viewBox="0 0 114 118" version="1.1" xmlns="http://www.w3.org/2000/svg" xmlns:xlink="http://www.w3.org/1999/xlink">
    <!-- Generator: Sketch 46.2 (44496) - http://www.bohemiancoding.com/sketch -->
    <title>Group 12</title>
    <desc>Created with Sketch.</desc>
    <defs>
        <polygon id="path-1" points="110.660451 0.818005759 110.660451 106.192935 0.897132094 106.192935 0.897132094 0.818005759 110.660451 0.818005759"></polygon>
    </defs>
    <g id="Page-1" stroke="none" stroke-width="1" fill="none" fill-rule="evenodd">
        <g id="Artboard" transform="translate(-424.000000, -6058.000000)">
            <g id="Group-12" transform="translate(424.000000, 6058.000000)">
                <g id="Group-3" transform="translate(3.211268, 0.000000)">
                    <mask id="mask-2" fill="white">
                        <use xlink:href="#path-1"></use>
                    </mask>
                    <g id="Clip-2"></g>
                    <path d="M110.658701,66.0977085 C110.658701,75.5595346 110.664532,85.0204067 110.656758,94.4822327 C110.649955,102.138308 103.202814,107.789267 95.6487718,105.786057 C92.3999408,104.924677 89.213307,103.836267 86.0120958,102.805091 C84.2035183,102.223206 83.3424761,100.69409 83.8322789,99.1086926 C84.3327718,97.4927703 86.0159831,96.6609614 87.8653775,97.2142288 C90.8722225,98.1137653 93.8431099,99.1315864 96.8606451,99.9958282 C100.215406,100.956415 103.472011,99.1821436 104.384561,95.971285 C104.53811,95.4294646 104.569208,94.8399486 104.569208,94.2723726 C104.578927,75.4822679 104.58087,56.6921632 104.574068,37.9011045 C104.572124,34.8505027 103.011363,32.9169286 99.8130676,31.9725584 C87.2113352,28.2504045 74.6076592,24.5387435 62.0049549,20.8213591 C46.5635324,16.2673963 31.1201662,11.718203 15.6836028,7.14897761 C13.2054338,6.41637529 10.7826592,6.33338518 8.92257465,8.30797736 C8.03820845,9.24662408 7.58339155,10.6288386 7.12468732,11.8775058 C6.87784225,12.5500119 7.01195493,13.3656043 7.01195493,14.1163309 C7.00709577,26.0535514 7.01001127,37.990772 7.00418028,49.9279926 C7.00418028,50.5900056 7.00029296,51.2577421 6.91088451,51.9121238 C6.7068,53.4068997 5.44633521,54.4895867 3.97012394,54.4991258 C2.4978,54.5096188 1.22178592,53.4278857 1.00118028,51.9436028 C0.923433803,51.4208606 0.904969014,50.8876253 0.904969014,50.3582056 C0.90108169,37.9783712 0.888447887,25.5985367 0.906912676,13.2187023 C0.916630986,6.74833571 4.64263099,2.03507003 10.9235746,0.972415106 C12.8808423,0.640454681 15.1014761,0.867485087 17.0237577,1.42647592 C37.8248282,7.47426067 58.5879972,13.6403302 79.3618563,19.771105 C86.7157014,21.9412486 94.0685746,24.1180695 101.430194,26.2634115 C106.287406,27.6799667 109.442941,30.6599793 110.488631,35.6069528 C110.634406,36.2909057 110.650927,37.0101533 110.651899,37.7131844 C110.661617,47.1740565 110.658701,56.6358825 110.658701,66.0977085" id="Fill-1" fill="#A6A6A6" mask="url(#mask-2)"></path>
                </g>
                <path d="M80.2780122,78.9677118 C80.2780122,89.378277 80.2895703,99.7888421 80.2717078,110.201361 C80.2654033,114.000431 78.0073659,116.784527 74.2425693,117.739911 C69.5468181,118.932677 64.7911749,115.886778 64.3435602,111.388265 C64.2637041,110.577458 64.2300804,109.76079 64.2300804,108.948029 C64.223776,88.9865498 64.223776,69.0240933 64.2300804,49.0626137 C64.2311312,48.2039399 64.2668563,47.3423355 64.3509154,46.4875692 C64.7060651,42.8565219 67.9213254,40.0753566 71.9666693,39.8741202 C75.6967916,39.6894907 79.3081804,42.2889571 80.0195305,45.7207217 C80.1929024,46.5569274 80.2664541,47.424393 80.2675048,48.2781825 C80.2843166,58.5080256 80.2790629,68.7378687 80.2780122,78.9677118" id="Fill-4" fill="#A6A6A6"></path>
                <path d="M43.3586461,80.3790972 C43.3586461,72.6810135 43.3460399,64.9819581 43.3638987,57.2829027 C43.3723028,53.4183132 45.6456143,50.6070842 49.4442715,49.6742187 C54.0822892,48.5363172 58.8211561,51.5467518 59.2854831,55.9351065 C59.3569181,56.6056035 59.4020901,57.281931 59.4020901,57.956315 C59.4094437,73.0376402 59.4146963,88.1199372 59.3926355,103.202234 C59.3905345,104.271143 59.3275037,105.382807 59.0144506,106.401185 C57.8946031,110.046163 54.1904921,112.092636 49.9380129,111.52903 C46.1939824,111.033445 43.3828079,107.873364 43.3691512,104.015576 C43.3376358,96.1367499 43.3596966,88.2579235 43.3586461,80.3790972" id="Fill-6" fill="#A6A6A6"></path>
                <path d="M36.9259137,78.2257317 C36.9259137,83.2477546 36.9354236,88.2707291 36.9238004,93.2927521 C36.9142905,97.3937219 33.4907344,100.456604 28.9418427,100.459459 C24.4257072,100.461362 20.908109,97.3851584 20.8954292,93.3108306 C20.8668995,83.178295 20.8637296,73.044808 20.8985991,62.911321 C20.9123356,58.8055936 24.4986163,55.770305 29.1436635,55.8112195 C33.5551903,55.8511826 36.9164039,58.9587853 36.9238004,63.0264526 C36.9333103,68.0931961 36.9259137,73.1599396 36.9259137,78.2257317" id="Fill-8" fill="#A6A6A6"></path>
                <path d="M0.00341582159,79.6892261 C0.00341582159,76.8594536 -0.00607257172,74.030667 0.00657861936,71.2008945 C0.0245011401,67.119909 3.53520667,63.8355981 7.91462731,63.784327 C12.0926832,63.7360138 15.8848777,66.9167964 15.9639476,70.816361 C16.0830797,76.7924067 16.0925681,82.7743683 15.9597306,88.749428 C15.8690637,92.860979 12.1232569,95.7765321 7.44758751,95.6730038 C3.36441559,95.5822933 0.0213383423,92.2812207 0.00552435344,88.3146093 C-0.0050183058,85.4394816 0.00341582159,82.5643538 0.00341582159,79.6892261" id="Fill-10" fill="#A6A6A6"></path>
            </g>
        </g>
    </g>
</svg>