<?xml version="1.0" encoding="UTF-8"?>
<svg width="98px" height="24px" viewBox="0 0 98 24" version="1.1" xmlns="http://www.w3.org/2000/svg" xmlns:xlink="http://www.w3.org/1999/xlink">
    <!-- Generator: Sketch 46.2 (44496) - http://www.bohemiancoding.com/sketch -->
    <title>Recode_logo_2016</title>
    <desc>Created with Sketch.</desc>
    <defs></defs>
    <g id="Page-1" stroke="none" stroke-width="1" fill="none" fill-rule="evenodd">
        <g id="Artboard-Copy-3" transform="translate(-1511.000000, -2403.000000)" fill-rule="nonzero" fill="#474747">
            <g id="Group-7" transform="translate(1480.500000, 2180.000000)">
                <g id="Recode_logo_2016" transform="translate(31.000000, 223.000000)">
                    <path d="M9,9.89065606 L9,5 C6.98004988,5 5.55486284,5.90656064 4.73566085,7.71968191 L4.73566085,5.33399602 L0,5.33399602 L0,23 L5.04987531,23 L5.04987531,14.3638171 C5.04987531,11.0357853 5.71197007,9.90258449 8.8765586,9.90258449 L9,9.90258449 L9,9.89065606 Z" id="Shape"></path>
                    <path d="M97,16.0241327 C97,9.4479638 93.2238364,5.40573152 87.7075599,5.40573152 C85.3518967,5.40573152 83.0672585,6.39517345 81.315308,8.16892911 C80.3801453,9.12217195 79.6817326,10.2322775 79.2319075,11.4509804 L79.2319075,0 L73.9642185,0 L73.9642185,7.71040724 C72.7804681,6.14177979 71.1113801,5.40573152 68.945117,5.40573152 C66.6841539,5.40573152 64.6481033,6.25037707 62.9790153,7.91553544 C61.77159,9.09803922 60.9311273,10.4856712 60.4931396,12.0301659 C60.0433145,10.5218703 59.2146893,9.11010558 58.0309389,7.9638009 C56.2908259,6.28657617 54.1245628,5.39366516 51.6031746,5.39366516 C49.2475114,5.39366516 46.9510358,6.38310709 45.2109228,8.15686275 C44.27576,9.11010558 43.5655098,10.2322775 43.1156847,11.4630468 C41.6004843,7.52941176 38.5464084,5.40573152 34.4743072,5.40573152 C32.6394942,5.40573152 31.0059188,5.91251885 29.5617433,6.91402715 L27.0521926,13.1040724 C26.0933549,8.2775264 22.6841539,5.40573152 18.0438526,5.40573152 C15.6881894,5.40573152 13.4035513,6.39517345 11.6516008,8.16892911 C9.93516277,9.90648567 9,12.1749623 9,14.6365008 C9,17.1342383 9.87597525,19.3665158 11.5450632,21.1764706 C13.3206887,23.0829563 15.4514393,24 18.0912026,24 C20.0680656,24 21.7845036,23.505279 23.2168415,22.5399698 L24.874092,18.4374057 L20.8966909,18.4374057 C20.1272532,19.1251885 19.2867904,19.4268477 18.2569276,19.4268477 C16.031477,19.4268477 14.7056766,18.4374057 14.2558515,16.5671192 L25.6435297,16.5671192 C25.9868173,18.280543 26.7680925,19.8612368 27.9991929,21.1764706 C29.7748184,23.0829563 31.8937315,24 34.5334948,24 C38.4990584,24 41.6833468,21.7677225 43.1275222,17.9909502 C43.5536723,19.1613876 44.2165725,20.2232278 45.0925478,21.1644042 C46.8681733,23.0708899 48.9989239,24 51.6505246,24 C54.2666129,24 56.4683885,23.0467572 58.244014,21.2368024 C59.3212268,20.1387632 60.0669895,18.8838612 60.4694646,17.4479638 C60.9429648,19.1372549 61.86629,20.6214178 63.2276029,21.8642534 C64.7901533,23.2880845 66.6604789,24 68.826742,24 C70.9574926,24 72.5555556,23.4208145 74.118106,21.8642534 L74.118106,23.60181 L79.2200699,23.60181 L79.2200699,17.9306184 C79.6462201,19.1131222 80.3091203,20.2111614 81.2087705,21.1764706 C82.984396,23.0829563 85.1151466,24 87.7549099,24 C91.6257735,24 94.5022868,22.1297134 96.1713748,18.4374057 L90.5603982,18.4374057 C89.7909605,19.1251885 88.9504977,19.4268477 87.9206349,19.4268477 C85.6951843,19.4268477 84.3693839,18.4374057 83.9195588,16.5671192 L96.9881625,16.5671192 L96.9881625,16.0241327 L97,16.0241327 Z M14.1019639,12.8989442 C14.4570891,11.2217195 15.9722895,10.0995475 18.1030401,10.0995475 C20.1390907,10.0995475 21.5832661,11.0889894 22.1988162,12.8989442 L14.1019639,12.8989442 Z M37.9545332,17.2428356 C37.1140705,18.3891403 35.9895077,18.9803922 34.6045198,18.9803922 C32.1541566,18.9803922 30.4850686,17.3031674 30.4850686,14.612368 C30.4850686,12.1870287 32.1541566,10.413273 34.4506322,10.413273 C36.1197202,10.413273 37.315308,11.0648567 38.0255582,12.2835596 L42.8552596,12.2835596 C42.6540221,13.0437406 42.559322,13.8280543 42.559322,14.6485671 C42.559322,15.5414781 42.6776971,16.4102564 42.9026096,17.2428356 L37.9545332,17.2428356 Z M51.6978746,19.1855204 C49.4132365,19.1855204 47.4837234,17.1945701 47.4837234,14.7209653 C47.4837234,12.2232278 49.377724,10.2202112 51.6978746,10.2202112 C54.0180253,10.2202112 55.9120258,12.2111614 55.9120258,14.7209653 C55.9120258,17.1945701 54.0180253,19.1855204 51.6978746,19.1855204 L51.6978746,19.1855204 Z M70.0104923,19.1855204 C67.3233791,19.1855204 65.393866,17.254902 65.393866,14.7209653 C65.393866,12.2835596 67.3233791,10.2202112 69.8092548,10.2202112 C72.259618,10.2202112 74.1536185,12.1870287 74.1536185,14.7812971 C74.165456,17.2911011 72.2714555,19.1855204 70.0104923,19.1855204 L70.0104923,19.1855204 Z M83.7775087,12.8989442 C84.1326338,11.2217195 85.6478343,10.0995475 87.7785849,10.0995475 C89.8146355,10.0995475 91.2588109,11.0889894 91.874361,12.8989442 L83.7775087,12.8989442 Z" id="Shape"></path>
                </g>
            </g>
        </g>
    </g>
</svg>