<?xml version="1.0" encoding="UTF-8" standalone="no"?>
<svg width="194px" height="48px" viewBox="0 0 194 48" version="1.1" xmlns="http://www.w3.org/2000/svg" xmlns:xlink="http://www.w3.org/1999/xlink">
    <!-- Generator: Sketch 46.2 (44496) - http://www.bohemiancoding.com/sketch -->
    <title>Recode_logo_2016</title>
    <desc>Created with Sketch.</desc>
    <defs></defs>
    <g id="Page-1" stroke="none" stroke-width="1" fill="none" fill-rule="evenodd">
        <g id="Artboard" transform="translate(-1264.000000, -2202.000000)" fill-rule="nonzero" fill="#474747">
            <g id="Recode_logo_2016" transform="translate(1264.000000, 2202.000000)">
                <path d="M18,19.7813121 L18,10 C13.9600998,10 11.1097257,11.8131213 9.4713217,15.4393638 L9.4713217,10.667992 L0,10.667992 L0,46 L10.0997506,46 L10.0997506,28.7276342 C10.0997506,22.0715706 11.4239401,19.805169 17.7531172,19.805169 L18,19.805169 L18,19.7813121 Z" id="Shape"></path>
                <path d="M194,32.0482655 C194,18.8959276 186.447673,10.811463 175.41512,10.811463 C170.703793,10.811463 166.134517,12.7903469 162.630616,16.3378582 C160.760291,18.2443439 159.363465,20.4645551 158.463815,22.9019608 L158.463815,0 L147.928437,0 L147.928437,15.4208145 C145.560936,12.2835596 142.22276,10.811463 137.890234,10.811463 C133.368308,10.811463 129.296207,12.5007541 125.958031,15.8310709 C123.54318,18.1960784 121.862255,20.9713424 120.986279,24.0603318 C120.086629,21.0437406 118.429379,18.2202112 116.061878,15.9276018 C112.581652,12.5731523 108.249126,10.7873303 103.206349,10.7873303 C98.4950229,10.7873303 93.9020716,12.7662142 90.4218456,16.3137255 C88.55152,18.2202112 87.1310196,20.4645551 86.2313694,22.9260935 C83.2009685,15.0588235 77.0928168,10.811463 68.9486145,10.811463 C65.2789884,10.811463 62.0118375,11.8250377 59.1234867,13.8280543 L54.1043853,26.2081448 C52.1867097,16.5550528 45.3683078,10.811463 36.0877051,10.811463 C31.3763788,10.811463 26.8071025,12.7903469 23.3032015,16.3378582 C19.8703255,19.8129713 18,24.3499246 18,29.2730015 C18,34.2684766 19.7519505,38.7330317 23.0901264,42.3529412 C26.6413775,46.1659125 30.9028787,48 36.1824052,48 C40.1361313,48 43.5690073,47.0105581 46.4336831,45.0799397 L49.748184,36.8748115 L41.7933818,36.8748115 C40.2545063,38.2503771 38.5735808,38.8536953 36.5138553,38.8536953 C32.062954,38.8536953 29.4113532,36.8748115 28.511703,33.1342383 L51.2870595,33.1342383 C51.9736347,36.561086 53.5361851,39.7224736 55.9983858,42.3529412 C59.5496368,46.1659125 63.787463,48 69.0669895,48 C76.9981168,48 83.3666936,43.5354449 86.2550444,35.9819005 C87.1073446,38.3227753 88.433145,40.4464555 90.1850955,42.3288084 C93.7363465,46.1417798 97.9978477,48 103.301049,48 C108.533226,48 112.936777,46.0935143 116.488028,42.4736048 C118.642454,40.2775264 120.133979,37.7677225 120.938929,34.8959276 C121.88593,38.2745098 123.73258,41.2428356 126.455206,43.7285068 C129.580307,46.5761689 133.320958,48 137.653484,48 C141.914985,48 145.111111,46.841629 148.236212,43.7285068 L148.236212,47.2036199 L158.44014,47.2036199 L158.44014,35.8612368 C159.29244,38.2262443 160.618241,40.4223228 162.417541,42.3529412 C165.968792,46.1659125 170.230293,48 175.50982,48 C183.251547,48 189.004574,44.2594268 192.34275,36.8748115 L181.120796,36.8748115 C179.581921,38.2503771 177.900995,38.8536953 175.84127,38.8536953 C171.390369,38.8536953 168.738768,36.8748115 167.839118,33.1342383 L193.976325,33.1342383 L193.976325,32.0482655 L194,32.0482655 Z M28.2039279,25.7978884 C28.9141781,22.4434389 31.944579,20.199095 36.2060802,20.199095 C40.2781813,20.199095 43.1665321,22.1779789 44.3976325,25.7978884 L28.2039279,25.7978884 Z M75.9090665,34.4856712 C74.228141,36.7782805 71.9790153,37.9607843 69.2090395,37.9607843 C64.3083132,37.9607843 60.9701372,34.6063348 60.9701372,29.224736 C60.9701372,24.3740573 64.3083132,20.826546 68.9012645,20.826546 C72.2394404,20.826546 74.6306161,22.1297134 76.0511165,24.5671192 L85.7105192,24.5671192 C85.3080441,26.0874811 85.1186441,27.6561086 85.1186441,29.2971342 C85.1186441,31.0829563 85.3553941,32.8205128 85.8052193,34.4856712 L75.9090665,34.4856712 Z M103.395749,38.3710407 C98.826473,38.3710407 94.9674469,34.3891403 94.9674469,29.4419306 C94.9674469,24.4464555 98.7554479,20.4404223 103.395749,20.4404223 C108.036051,20.4404223 111.824052,24.4223228 111.824052,29.4419306 C111.824052,34.3891403 108.036051,38.3710407 103.395749,38.3710407 L103.395749,38.3710407 Z M140.020985,38.3710407 C134.646758,38.3710407 130.787732,34.5098039 130.787732,29.4419306 C130.787732,24.5671192 134.646758,20.4404223 139.61851,20.4404223 C144.519236,20.4404223 148.307237,24.3740573 148.307237,29.5625943 C148.330912,34.5822021 144.542911,38.3710407 140.020985,38.3710407 L140.020985,38.3710407 Z M167.555017,25.7978884 C168.265268,22.4434389 171.295669,20.199095 175.55717,20.199095 C179.629271,20.199095 182.517622,22.1779789 183.748722,25.7978884 L167.555017,25.7978884 Z" id="Shape"></path>
            </g>
        </g>
    </g>
</svg>