<?xml version="1.0" encoding="UTF-8" standalone="no"?>
<svg width="146px" height="27px" viewBox="0 0 146 27" version="1.1" xmlns="http://www.w3.org/2000/svg" xmlns:xlink="http://www.w3.org/1999/xlink">
    <!-- Generator: Sketch 46.2 (44496) - http://www.bohemiancoding.com/sketch -->
    <title>logo--wordmark--beta--white</title>
    <desc>Created with Sketch.</desc>
    <defs></defs>
    <g id="Page-1" stroke="none" stroke-width="1" fill="none" fill-rule="evenodd">
        <g id="logo--wordmark--beta--white">
            <path d="M41.6558395,11.305561 L45.6861578,2.1995425 L49.7955018,11.5416721 L41.5521991,11.5416721 L41.6558395,11.305561 L41.6558395,11.305561 Z M50.3992075,12.9491567 L50.4432547,13.0501598 L52.3865132,17.4903604 L54.0823301,17.4903604 L46.4997353,0.523153617 L44.9205139,0.523153617 L37.337919,17.4903604 L38.9365731,17.4903604 L40.9484934,12.9491567 L50.3992075,12.9491567 L50.3992075,12.9491567 Z" id="Fill-5" fill="#333333" fill-rule="nonzero"></path>
            <path d="M14.4186097,0.645144358 L12.8355017,0.645144358 L12.8355017,10.4660548 C12.8355017,12.3523203 12.3639377,13.812274 11.432469,14.8039407 C10.4984094,15.7995425 9.19383519,16.3045579 7.55502052,16.3045579 C5.88252267,16.3045579 4.55722035,15.7785549 3.6140922,14.739666 C2.67744159,13.7073357 2.201991,12.2277061 2.201991,10.3440641 L2.201991,0.645144358 L0.618883045,0.645144358 L0.618883045,10.4660548 C0.618883045,12.7825672 1.2472033,14.5966876 2.48570675,15.8585703 C3.72421019,17.120453 5.41354961,17.7592647 7.50708683,17.7592647 C9.61617007,17.7592647 11.314578,17.1165178 12.5530815,15.8467647 C13.7915849,14.5770116 14.4186097,12.7169808 14.4186097,10.3191412 L14.4186097,0.645144358 L14.4186097,0.645144358 Z" id="Fill-7" fill="#333333" fill-rule="nonzero"></path>
            <path d="M31.1337423,16.4352061 C32.1714424,15.5812709 32.6974177,14.4321968 32.6974177,13.0194654 C32.6974177,11.7680765 32.2724918,10.7672277 31.4330041,10.0418419 C30.5792659,9.30465052 29.1891883,8.71830793 27.300341,8.29855487 C25.4672004,7.89847768 24.2520161,7.45380178 23.5861261,6.94222769 C22.9072811,6.42015979 22.5639721,5.6908388 22.5639721,4.77262892 C22.5639721,3.92000547 22.9189407,3.20380176 23.6211048,2.63975856 C24.3090183,2.0875209 25.2249409,1.80681103 26.3416667,1.80681103 C28.0815309,1.80681103 29.7177546,2.41020609 31.2101771,3.59994374 L32.1235087,2.37216596 C30.4587838,1.06306102 28.5310714,0.398014729 26.390896,0.398014729 C24.8207431,0.398014729 23.5109868,0.83219683 22.4966059,1.68613201 C21.489998,2.5308851 20.9795687,3.62749004 20.9795687,4.94446535 C20.9795687,6.27586967 21.4122676,7.30951164 22.2647103,8.01784499 C23.1378812,8.74060731 24.577188,9.32826162 26.5463567,9.76244372 C28.2991759,10.1310394 29.4638355,10.5586629 30.1038153,11.070237 C30.7567502,11.5923049 31.0883996,12.3137555 31.0883996,13.2149129 C31.0883996,14.1344345 30.7165895,14.8926135 29.9807423,15.4710857 C29.2630321,16.0403758 28.3069489,16.3276444 27.1422893,16.3276444 C25.9750387,16.3276444 24.912724,16.1256382 23.9851419,15.725561 C23.101607,15.3464715 22.2115946,14.7561937 21.3410148,13.9717802 L20.3667945,15.136595 C22.3178261,16.8615178 24.5733015,17.7364407 27.0684454,17.7364407 C28.7189197,17.7364407 30.0856782,17.2983234 31.1337423,16.4352061" id="Fill-9" fill="#333333" fill-rule="nonzero"></path>
            <polygon id="Fill-11" fill="#333333" fill-rule="nonzero" points="64.8802405 3.80614745 64.8802405 7.36749004 72.7633928 7.36749004 72.7633928 10.7137092 64.8802405 10.7137092 64.8802405 17.1897123 61.2450516 17.1897123 61.2450516 0.461240037 73.827003 0.461240037 73.827003 3.80614745"></polygon>
            <path d="M84.2142379,4.76200392 L82.0196516,10.1873125 L86.4088248,10.1873125 L84.2142379,4.76200392 L84.2142379,4.76200392 Z M89.2187764,17.1906305 L87.7069214,13.4377756 L80.7202593,13.4377756 L79.2096993,17.1906305 L75.5045529,17.1906305 L82.5857874,0.341479234 L85.9372607,0.341479234 L93.0184946,17.1906305 L89.2187764,17.1906305 L89.2187764,17.1906305 Z" id="Fill-13" fill="#333333" fill-rule="nonzero"></path>
            <path d="M104.327223,17.4765872 C99.4638948,17.4765872 95.8533202,13.6765101 95.8533202,8.87296074 L95.8533202,8.82442674 C95.8533202,4.06941133 99.3939371,0.173578 104.468433,0.173578 C107.584124,0.173578 109.448357,1.22558417 110.982236,2.75505948 L108.669758,5.45590825 C107.396276,4.28453479 106.098179,3.56833109 104.445114,3.56833109 C101.658481,3.56833109 99.6530384,5.90976627 99.6530384,8.77851625 L99.6530384,8.82442674 C99.6530384,11.6931768 101.613138,14.0831459 104.445114,14.0831459 C106.332666,14.0831459 107.489552,13.31972 108.787649,12.1234237 L111.101422,14.4897817 C109.401719,16.3301366 107.514167,17.4765872 104.327223,17.4765872" id="Fill-15" fill="#333333" fill-rule="nonzero"></path>
            <polygon id="Fill-17" fill="#333333" fill-rule="nonzero" points="123.566648 3.8541567 123.566648 17.1904993 119.931459 17.1904993 119.931459 3.8541567 114.903602 3.8541567 114.903602 0.460715345 128.59321 0.460715345 128.59321 3.8541567"></polygon>
            <path d="M138.982648,17.4298897 C136.481027,17.4298897 133.95479,16.5457848 131.971371,14.7526521 L134.120615,12.1475595 C135.60656,13.3897663 137.165054,14.1794268 139.052605,14.1794268 C140.541141,14.1794268 141.437631,13.5825904 141.437631,12.6014175 L141.437631,12.5541953 C141.437631,11.6215564 140.8702,11.1427755 138.109477,10.4265718 C134.781323,9.56607799 132.633375,8.63475084 132.633375,5.31214281 L132.633375,5.26492059 C132.633375,2.22826936 135.040424,0.221324913 138.416512,0.221324913 C140.823562,0.221324913 142.878234,0.98606257 144.553323,2.34894837 L142.66577,5.12063047 C141.200554,4.09354713 139.761247,3.47178788 138.368578,3.47178788 C136.975909,3.47178788 136.243949,4.11715824 136.243949,4.93042985 L136.243949,4.97765207 C136.243949,6.07688047 136.952591,6.43498232 139.80918,7.17610889 C143.160654,8.06021383 145.048205,9.28012122 145.048205,12.1947817 L145.048205,12.2433157 C145.048205,15.5646119 142.546584,17.4298897 138.982648,17.4298897" id="Fill-19" fill="#333333" fill-rule="nonzero"></path>
            <g id="BETA" opacity="0.699999988" transform="translate(1.000000, 20.173578)" fill="#000000">
                <path d="M3.11132812,3.0998595 C3.4804706,3.0998595 3.7675771,3.04859048 3.97265625,2.94605091 C4.29492349,2.78491729 4.45605469,2.49488113 4.45605469,2.07593372 C4.45605469,1.65405661 4.28466968,1.36987976 3.94189453,1.22339466 C3.74853419,1.141363 3.46142769,1.10034778 3.08056641,1.10034778 L1.52050781,1.10034778 L1.52050781,3.0998595 L3.11132812,3.0998595 Z M3.40576172,6.07935169 C3.94189721,6.07935169 4.32421761,5.9240798 4.55273438,5.61353138 C4.69628978,5.41724133 4.76806641,5.17993902 4.76806641,4.90161731 C4.76806641,4.43286497 4.55859584,4.11353222 4.13964844,3.9436095 C3.91699107,3.85278873 3.62256042,3.80737903 3.25634766,3.80737903 L1.52050781,3.80737903 L1.52050781,6.07935169 L3.40576172,6.07935169 Z M0.663574219,0.370855594 L3.43652344,0.370855594 C4.19238659,0.370855594 4.72997887,0.596439275 5.04931641,1.04761341 C5.23681734,1.3142163 5.33056641,1.62183041 5.33056641,1.97046497 C5.33056641,2.37769357 5.21484491,2.7116746 4.98339844,2.97241809 C4.86328065,3.11011409 4.69043082,3.2360894 4.46484375,3.35034778 C4.79590009,3.47632497 5.04345621,3.6184134 5.20751953,3.77661731 C5.49756004,4.05786872 5.64257812,4.44604843 5.64257812,4.94116809 C5.64257812,5.3571858 5.51220833,5.73364688 5.25146484,6.07056263 C4.86181446,6.57447139 4.24219175,6.826422 3.39257812,6.826422 L0.663574219,6.826422 L0.663574219,0.370855594 Z M6.77197266,0.370855594 L11.4785156,0.370855594 L11.4785156,1.16187122 L7.62451172,1.16187122 L7.62451172,3.12183216 L11.1884766,3.12183216 L11.1884766,3.86890247 L7.62451172,3.86890247 L7.62451172,6.05737903 L11.5444336,6.05737903 L11.5444336,6.826422 L6.77197266,6.826422 L6.77197266,0.370855594 Z M17.3891602,0.370855594 L17.3891602,1.13989856 L15.2138672,1.13989856 L15.2138672,6.826422 L14.3261719,6.826422 L14.3261719,1.13989856 L12.1508789,1.13989856 L12.1508789,0.370855594 L17.3891602,0.370855594 Z M20.8388672,4.18091419 L19.8588867,1.32886341 L18.8173828,4.18091419 L20.8388672,4.18091419 Z M19.4018555,0.370855594 L20.390625,0.370855594 L22.7329102,6.826422 L21.7749023,6.826422 L21.1201172,4.89282825 L18.5668945,4.89282825 L17.8681641,6.826422 L16.9716797,6.826422 L19.4018555,0.370855594 Z"></path>
            </g>
        </g>
    </g>
</svg>